<mxfile host="app.diagrams.net" modified="2023-06-21T09:09:24.608Z" agent="Mozilla/5.0 (Macintosh; Intel Mac OS X 10_15_7) AppleWebKit/537.36 (KHTML, like Gecko) Chrome/112.0.0.0 Safari/537.36" etag="IdnFtdQ1ssiG0g7vq0p4" version="21.1.5" type="device" pages="3">
  <diagram name="システム関連図" id="ofx0Wylcf3zZ1w08l28B">
    <mxGraphModel dx="1194" dy="741" grid="1" gridSize="10" guides="1" tooltips="1" connect="1" arrows="1" fold="1" page="1" pageScale="1" pageWidth="827" pageHeight="1169" math="0" shadow="0">
      <root>
        <mxCell id="0" />
        <mxCell id="1" parent="0" />
      </root>
    </mxGraphModel>
  </diagram>
  <diagram id="3pBK4lonwhnvjyzeIyl3" name="ユースケース">
    <mxGraphModel dx="1194" dy="741" grid="1" gridSize="10" guides="1" tooltips="1" connect="1" arrows="1" fold="1" page="1" pageScale="1" pageWidth="827" pageHeight="1169" math="0" shadow="0">
      <root>
        <mxCell id="0" />
        <mxCell id="1" parent="0" />
        <mxCell id="N9D0sJMy-FZw_KNgOCy6-6" value="" style="rounded=0;whiteSpace=wrap;html=1;fillColor=none;" parent="1" vertex="1">
          <mxGeometry x="640" y="80" width="440" height="840" as="geometry" />
        </mxCell>
        <mxCell id="N9D0sJMy-FZw_KNgOCy6-2" value="手札が3枚になるように&lt;br&gt;山札からカードを引く" style="rounded=1;whiteSpace=wrap;html=1;" parent="1" vertex="1">
          <mxGeometry x="720" y="800" width="280" height="80" as="geometry" />
        </mxCell>
        <mxCell id="N9D0sJMy-FZw_KNgOCy6-3" value="手札からからだパーツカードを1枚&lt;br&gt;自分のからだエリアに置く" style="rounded=1;whiteSpace=wrap;html=1;" parent="1" vertex="1">
          <mxGeometry x="720" y="160" width="280" height="80" as="geometry" />
        </mxCell>
        <mxCell id="N9D0sJMy-FZw_KNgOCy6-4" value="手札からカードを1〜3枚&lt;br&gt;捨て札に置く" style="rounded=1;whiteSpace=wrap;html=1;" parent="1" vertex="1">
          <mxGeometry x="720" y="640" width="280" height="80" as="geometry" />
        </mxCell>
        <mxCell id="N9D0sJMy-FZw_KNgOCy6-7" value="プレイヤー" style="shape=umlActor;verticalLabelPosition=bottom;verticalAlign=top;html=1;outlineConnect=0;" parent="1" vertex="1">
          <mxGeometry x="480" y="480" width="40" height="80" as="geometry" />
        </mxCell>
        <mxCell id="N9D0sJMy-FZw_KNgOCy6-9" value="" style="endArrow=none;html=1;rounded=0;entryX=0;entryY=0.5;entryDx=0;entryDy=0;startArrow=none;startFill=0;edgeStyle=orthogonalEdgeStyle;curved=1;" parent="1" source="N9D0sJMy-FZw_KNgOCy6-7" target="N9D0sJMy-FZw_KNgOCy6-3" edge="1">
          <mxGeometry width="50" height="50" relative="1" as="geometry">
            <mxPoint x="600" y="440" as="sourcePoint" />
            <mxPoint x="440" y="270" as="targetPoint" />
          </mxGeometry>
        </mxCell>
        <mxCell id="N9D0sJMy-FZw_KNgOCy6-11" value="" style="endArrow=none;html=1;rounded=0;startArrow=none;startFill=0;entryX=0;entryY=0.5;entryDx=0;entryDy=0;edgeStyle=orthogonalEdgeStyle;curved=1;" parent="1" source="N9D0sJMy-FZw_KNgOCy6-7" target="fZm9NWP4qwOU_RnzxhyW-2" edge="1">
          <mxGeometry width="50" height="50" relative="1" as="geometry">
            <mxPoint x="600" y="440" as="sourcePoint" />
            <mxPoint x="660" y="630" as="targetPoint" />
          </mxGeometry>
        </mxCell>
        <mxCell id="N9D0sJMy-FZw_KNgOCy6-13" value="" style="endArrow=none;html=1;rounded=0;entryX=0;entryY=0.5;entryDx=0;entryDy=0;edgeStyle=orthogonalEdgeStyle;curved=1;" parent="1" source="N9D0sJMy-FZw_KNgOCy6-7" target="N9D0sJMy-FZw_KNgOCy6-2" edge="1">
          <mxGeometry width="50" height="50" relative="1" as="geometry">
            <mxPoint x="120" y="385" as="sourcePoint" />
            <mxPoint x="330" y="310" as="targetPoint" />
          </mxGeometry>
        </mxCell>
        <mxCell id="fZm9NWP4qwOU_RnzxhyW-1" value="手札からウィルスカードを1枚&lt;br&gt;相手のからだパーツカードの上に置く" style="rounded=1;whiteSpace=wrap;html=1;" parent="1" vertex="1">
          <mxGeometry x="720" y="400" width="280" height="80" as="geometry" />
        </mxCell>
        <mxCell id="fZm9NWP4qwOU_RnzxhyW-2" value="手札から薬カードを1枚&lt;br&gt;自分のからだパーツカードの上に置く" style="rounded=1;whiteSpace=wrap;html=1;" parent="1" vertex="1">
          <mxGeometry x="720" y="280" width="280" height="80" as="geometry" />
        </mxCell>
        <mxCell id="fZm9NWP4qwOU_RnzxhyW-3" value="" style="endArrow=none;html=1;rounded=0;startArrow=none;startFill=0;entryX=0;entryY=0.5;entryDx=0;entryDy=0;edgeStyle=orthogonalEdgeStyle;curved=1;" parent="1" source="N9D0sJMy-FZw_KNgOCy6-7" target="fZm9NWP4qwOU_RnzxhyW-1" edge="1">
          <mxGeometry y="20" width="50" height="50" relative="1" as="geometry">
            <mxPoint x="600" y="440" as="sourcePoint" />
            <mxPoint x="660" y="630" as="targetPoint" />
            <mxPoint as="offset" />
          </mxGeometry>
        </mxCell>
        <mxCell id="fZm9NWP4qwOU_RnzxhyW-4" value="" style="endArrow=none;html=1;rounded=0;startArrow=none;startFill=0;entryX=0;entryY=0.5;entryDx=0;entryDy=0;edgeStyle=orthogonalEdgeStyle;curved=1;" parent="1" source="N9D0sJMy-FZw_KNgOCy6-7" target="N9D0sJMy-FZw_KNgOCy6-4" edge="1">
          <mxGeometry width="50" height="50" relative="1" as="geometry">
            <mxPoint x="600" y="440" as="sourcePoint" />
            <mxPoint x="660" y="630" as="targetPoint" />
          </mxGeometry>
        </mxCell>
        <mxCell id="46jRlvNg5XImmn10_4z5-1" value="手札から医療カードを1枚&lt;br&gt;捨て札に置いて効果を発動する" style="rounded=1;whiteSpace=wrap;html=1;" parent="1" vertex="1">
          <mxGeometry x="720" y="520" width="280" height="80" as="geometry" />
        </mxCell>
        <mxCell id="mnCh0vceoB6bXsJ-4PNX-1" value="" style="endArrow=none;html=1;rounded=0;startArrow=none;startFill=0;entryX=0;entryY=0.5;entryDx=0;entryDy=0;edgeStyle=orthogonalEdgeStyle;curved=1;" parent="1" source="N9D0sJMy-FZw_KNgOCy6-7" target="46jRlvNg5XImmn10_4z5-1" edge="1">
          <mxGeometry width="50" height="50" relative="1" as="geometry">
            <mxPoint x="600" y="440" as="sourcePoint" />
            <mxPoint x="660" y="630" as="targetPoint" />
          </mxGeometry>
        </mxCell>
        <mxCell id="TLPUah3G6rDj6UuC6c9a-1" value="アクション1-5" style="rounded=0;whiteSpace=wrap;html=1;fillColor=none;verticalAlign=top;spacing=10;dashed=1;" vertex="1" parent="1">
          <mxGeometry x="680" y="120" width="360" height="640" as="geometry" />
        </mxCell>
      </root>
    </mxGraphModel>
  </diagram>
  <diagram id="ZTexoPvEzaPDKvuqd1vC" name="オブジェクト図">
    <mxGraphModel dx="2021" dy="4248" grid="1" gridSize="10" guides="1" tooltips="1" connect="1" arrows="1" fold="1" page="1" pageScale="1" pageWidth="827" pageHeight="1169" math="0" shadow="0">
      <root>
        <mxCell id="0" />
        <mxCell id="1" parent="0" />
        <mxCell id="09PAbykDqG3_5M8GWdRA-78" value="&lt;b style=&quot;font-size: 16px;&quot;&gt;アクション1&lt;br&gt;&lt;/b&gt;&lt;br&gt;手札から「からだパーツカード」を1枚、&lt;span style=&quot;color: rgb(0, 0, 0); text-align: center;&quot;&gt;自分の「からだエリア」に置く&lt;/span&gt;" style="text;html=1;strokeColor=none;fillColor=none;align=left;verticalAlign=top;whiteSpace=wrap;rounded=0;fontColor=#333333;" vertex="1" parent="1">
          <mxGeometry x="1400" y="-3000" width="439.5" height="80" as="geometry" />
        </mxCell>
        <mxCell id="c_Ia4zeI4B_aajXnBUTX-197" value="免疫" style="text;html=1;strokeColor=#333333;fillColor=none;align=center;verticalAlign=top;whiteSpace=wrap;rounded=0;dashed=1;spacing=8;" parent="1" vertex="1">
          <mxGeometry x="2599.5" y="1640" width="360" height="560" as="geometry" />
        </mxCell>
        <mxCell id="c_Ia4zeI4B_aajXnBUTX-184" value="" style="rounded=1;whiteSpace=wrap;html=1;strokeColor=#333333;dashed=1;fillColor=none;arcSize=4;" parent="1" vertex="1">
          <mxGeometry x="2380" y="1820" width="160" height="220" as="geometry" />
        </mxCell>
        <mxCell id="c_Ia4zeI4B_aajXnBUTX-155" value="治療" style="text;html=1;strokeColor=#333333;fillColor=none;align=center;verticalAlign=top;whiteSpace=wrap;rounded=0;dashed=1;spacing=8;" parent="1" vertex="1">
          <mxGeometry x="2200" y="880" width="360" height="560" as="geometry" />
        </mxCell>
        <mxCell id="c_Ia4zeI4B_aajXnBUTX-181" value="" style="rounded=1;whiteSpace=wrap;html=1;strokeColor=#333333;dashed=1;fillColor=none;arcSize=4;" parent="1" vertex="1">
          <mxGeometry x="2380" y="1060" width="160" height="220" as="geometry" />
        </mxCell>
        <mxCell id="c_Ia4zeI4B_aajXnBUTX-143" value="破壊" style="text;html=1;strokeColor=#333333;fillColor=none;align=center;verticalAlign=top;whiteSpace=wrap;rounded=0;dashed=1;spacing=8;" parent="1" vertex="1">
          <mxGeometry x="2600" y="880" width="360" height="560" as="geometry" />
        </mxCell>
        <mxCell id="c_Ia4zeI4B_aajXnBUTX-178" value="" style="rounded=1;whiteSpace=wrap;html=1;strokeColor=#333333;dashed=1;fillColor=none;arcSize=4;" parent="1" vertex="1">
          <mxGeometry x="2620" y="1060" width="320" height="220" as="geometry" />
        </mxCell>
        <mxCell id="c_Ia4zeI4B_aajXnBUTX-141" value="感染" style="text;html=1;strokeColor=#333333;fillColor=none;align=center;verticalAlign=top;whiteSpace=wrap;rounded=0;dashed=1;spacing=8;" parent="1" vertex="1">
          <mxGeometry x="1800" y="880" width="360" height="560" as="geometry" />
        </mxCell>
        <mxCell id="8Rx44zWbmar0orGI43Fp-1" value="山札&lt;br&gt;Deck&lt;br&gt;- 枚数" style="rounded=0;whiteSpace=wrap;html=1;fontColor=#333333;" parent="1" vertex="1">
          <mxGeometry x="280" y="200" width="120" height="80" as="geometry" />
        </mxCell>
        <mxCell id="8Rx44zWbmar0orGI43Fp-2" value="手札&lt;br&gt;Hand&lt;br&gt;&lt;div style=&quot;text-align: left;&quot;&gt;&lt;span style=&quot;background-color: initial;&quot;&gt;- 枚数&lt;/span&gt;&lt;/div&gt;" style="rounded=0;whiteSpace=wrap;html=1;fontColor=#333333;" parent="1" vertex="1">
          <mxGeometry x="-120" y="360" width="120" height="80" as="geometry" />
        </mxCell>
        <mxCell id="8Rx44zWbmar0orGI43Fp-3" value="捨て札&lt;br&gt;Discard&lt;br&gt;- 枚数" style="rounded=0;whiteSpace=wrap;html=1;fontColor=#333333;" parent="1" vertex="1">
          <mxGeometry x="280" y="360" width="120" height="80" as="geometry" />
        </mxCell>
        <mxCell id="8Rx44zWbmar0orGI43Fp-4" value="からだエリア&lt;br&gt;BodyArea&lt;br&gt;- 枚数" style="rounded=0;whiteSpace=wrap;html=1;fontColor=#333333;" parent="1" vertex="1">
          <mxGeometry x="80" y="200" width="120" height="80" as="geometry" />
        </mxCell>
        <mxCell id="8Rx44zWbmar0orGI43Fp-5" value="&amp;lt;&amp;lt;interface&amp;gt;&amp;gt;&lt;br&gt;カード&lt;br&gt;ICard" style="rounded=0;whiteSpace=wrap;html=1;fontColor=#333333;" parent="1" vertex="1">
          <mxGeometry x="480" y="200" width="120" height="80" as="geometry" />
        </mxCell>
        <mxCell id="8Rx44zWbmar0orGI43Fp-6" value="からだパーツカード&lt;br&gt;BodyPartCard&lt;br&gt;&lt;div style=&quot;text-align: left;&quot;&gt;&lt;span style=&quot;background-color: initial;&quot;&gt;- 色&lt;/span&gt;&lt;/div&gt;&lt;div style=&quot;text-align: left;&quot;&gt;&lt;span style=&quot;background-color: initial;&quot;&gt;- 状態&lt;/span&gt;&lt;/div&gt;" style="rounded=0;whiteSpace=wrap;html=1;fontColor=#333333;" parent="1" vertex="1">
          <mxGeometry x="680" y="80" width="160" height="80" as="geometry" />
        </mxCell>
        <mxCell id="8Rx44zWbmar0orGI43Fp-7" value="ウィルスカード&lt;br&gt;VirusCard&lt;br&gt;&lt;div style=&quot;text-align: left;&quot;&gt;&lt;span style=&quot;background-color: initial;&quot;&gt;- 色&lt;/span&gt;&lt;/div&gt;" style="rounded=0;whiteSpace=wrap;html=1;fontColor=#333333;" parent="1" vertex="1">
          <mxGeometry x="680" y="200" width="160" height="80" as="geometry" />
        </mxCell>
        <mxCell id="8Rx44zWbmar0orGI43Fp-8" value="薬カード&lt;br&gt;MedicineCard&lt;br&gt;&lt;div style=&quot;text-align: left;&quot;&gt;&lt;span style=&quot;background-color: initial;&quot;&gt;- 色&lt;/span&gt;&lt;/div&gt;" style="rounded=0;whiteSpace=wrap;html=1;fontColor=#333333;" parent="1" vertex="1">
          <mxGeometry x="680" y="320" width="160" height="80" as="geometry" />
        </mxCell>
        <mxCell id="8Rx44zWbmar0orGI43Fp-9" value="医療カード&lt;br&gt;MedicalCard&lt;br&gt;&lt;div style=&quot;text-align: left;&quot;&gt;&lt;span style=&quot;background-color: initial;&quot;&gt;- 色&lt;/span&gt;&lt;/div&gt;" style="rounded=0;whiteSpace=wrap;html=1;fontColor=#333333;" parent="1" vertex="1">
          <mxGeometry x="680" y="440" width="160" height="80" as="geometry" />
        </mxCell>
        <mxCell id="MoYo7L7CuBFLuLiXsiKe-2" value="プレイヤー&lt;br&gt;Player&lt;br&gt;&lt;div style=&quot;text-align: left;&quot;&gt;&lt;span style=&quot;background-color: initial;&quot;&gt;- id&lt;/span&gt;&lt;/div&gt;&lt;div style=&quot;text-align: left;&quot;&gt;&lt;span style=&quot;background-color: initial;&quot;&gt;- 名前&lt;/span&gt;&lt;/div&gt;" style="rounded=0;whiteSpace=wrap;html=1;fontColor=#333333;" parent="1" vertex="1">
          <mxGeometry x="-120" y="200" width="120" height="80" as="geometry" />
        </mxCell>
        <mxCell id="MoYo7L7CuBFLuLiXsiKe-4" value="1" style="endArrow=none;html=1;rounded=0;exitX=0;exitY=0.5;exitDx=0;exitDy=0;entryX=1;entryY=0.5;entryDx=0;entryDy=0;startArrow=open;startFill=0;" parent="1" source="8Rx44zWbmar0orGI43Fp-4" target="MoYo7L7CuBFLuLiXsiKe-2" edge="1">
          <mxGeometry x="0.75" y="-20" width="50" height="50" relative="1" as="geometry">
            <mxPoint x="-60" y="220" as="sourcePoint" />
            <mxPoint x="-130" y="180" as="targetPoint" />
            <mxPoint as="offset" />
          </mxGeometry>
        </mxCell>
        <mxCell id="_8IDQQtwm1ryyyibQjXm-1" value="1" style="edgeLabel;html=1;align=center;verticalAlign=middle;resizable=0;points=[];" parent="MoYo7L7CuBFLuLiXsiKe-4" vertex="1" connectable="0">
          <mxGeometry x="-0.5" y="3" relative="1" as="geometry">
            <mxPoint x="10" y="-23" as="offset" />
          </mxGeometry>
        </mxCell>
        <mxCell id="MoYo7L7CuBFLuLiXsiKe-5" value="" style="endArrow=none;html=1;rounded=0;exitX=0.5;exitY=0;exitDx=0;exitDy=0;entryX=0.5;entryY=1;entryDx=0;entryDy=0;startArrow=open;startFill=0;" parent="1" source="8Rx44zWbmar0orGI43Fp-2" target="MoYo7L7CuBFLuLiXsiKe-2" edge="1">
          <mxGeometry width="50" height="50" relative="1" as="geometry">
            <mxPoint x="110" y="260" as="sourcePoint" />
            <mxPoint x="70" y="210" as="targetPoint" />
          </mxGeometry>
        </mxCell>
        <mxCell id="_8IDQQtwm1ryyyibQjXm-2" value="1" style="edgeLabel;html=1;align=center;verticalAlign=middle;resizable=0;points=[];" parent="MoYo7L7CuBFLuLiXsiKe-5" vertex="1" connectable="0">
          <mxGeometry x="0.325" relative="1" as="geometry">
            <mxPoint x="-20" y="-7" as="offset" />
          </mxGeometry>
        </mxCell>
        <mxCell id="_8IDQQtwm1ryyyibQjXm-3" value="1" style="edgeLabel;html=1;align=center;verticalAlign=middle;resizable=0;points=[];" parent="MoYo7L7CuBFLuLiXsiKe-5" vertex="1" connectable="0">
          <mxGeometry x="-0.05" y="2" relative="1" as="geometry">
            <mxPoint x="-18" y="18" as="offset" />
          </mxGeometry>
        </mxCell>
        <mxCell id="c_Ia4zeI4B_aajXnBUTX-5" value="&amp;lt;&amp;lt;interface&amp;gt;&amp;gt;&lt;br&gt;効果&lt;br&gt;IEffect" style="rounded=0;whiteSpace=wrap;html=1;fontColor=#333333;" parent="1" vertex="1">
          <mxGeometry x="920" y="440" width="120" height="80" as="geometry" />
        </mxCell>
        <mxCell id="c_Ia4zeI4B_aajXnBUTX-6" value="" style="endArrow=none;html=1;rounded=0;entryX=1;entryY=0.5;entryDx=0;entryDy=0;exitX=0;exitY=0.5;exitDx=0;exitDy=0;startArrow=open;startFill=0;" parent="1" source="c_Ia4zeI4B_aajXnBUTX-5" target="8Rx44zWbmar0orGI43Fp-9" edge="1">
          <mxGeometry width="50" height="50" relative="1" as="geometry">
            <mxPoint x="330" y="330" as="sourcePoint" />
            <mxPoint x="880" y="480" as="targetPoint" />
          </mxGeometry>
        </mxCell>
        <mxCell id="c_Ia4zeI4B_aajXnBUTX-7" value="くしゃみ&lt;br&gt;Sneeze" style="rounded=0;whiteSpace=wrap;html=1;fontColor=#333333;" parent="1" vertex="1">
          <mxGeometry x="760" y="600" width="120" height="80" as="geometry" />
        </mxCell>
        <mxCell id="c_Ia4zeI4B_aajXnBUTX-8" value="強奪&lt;br&gt;Extortion" style="rounded=0;whiteSpace=wrap;html=1;fontColor=#333333;" parent="1" vertex="1">
          <mxGeometry x="920" y="600" width="120" height="80" as="geometry" />
        </mxCell>
        <mxCell id="c_Ia4zeI4B_aajXnBUTX-9" value="" style="endArrow=block;html=1;rounded=0;entryX=0.5;entryY=1;entryDx=0;entryDy=0;exitX=0.5;exitY=0;exitDx=0;exitDy=0;dashed=1;endFill=0;edgeStyle=orthogonalEdgeStyle;" parent="1" source="c_Ia4zeI4B_aajXnBUTX-7" target="c_Ia4zeI4B_aajXnBUTX-5" edge="1">
          <mxGeometry width="50" height="50" relative="1" as="geometry">
            <mxPoint x="890" y="270" as="sourcePoint" />
            <mxPoint x="850" y="250" as="targetPoint" />
          </mxGeometry>
        </mxCell>
        <mxCell id="c_Ia4zeI4B_aajXnBUTX-11" value="" style="endArrow=block;html=1;rounded=0;entryX=0.5;entryY=1;entryDx=0;entryDy=0;exitX=0.5;exitY=0;exitDx=0;exitDy=0;dashed=1;endFill=0;edgeStyle=orthogonalEdgeStyle;" parent="1" source="c_Ia4zeI4B_aajXnBUTX-8" target="c_Ia4zeI4B_aajXnBUTX-5" edge="1">
          <mxGeometry width="50" height="50" relative="1" as="geometry">
            <mxPoint x="890" y="270" as="sourcePoint" />
            <mxPoint x="850" y="250" as="targetPoint" />
          </mxGeometry>
        </mxCell>
        <mxCell id="c_Ia4zeI4B_aajXnBUTX-12" value="移植&lt;br&gt;Transplanting" style="rounded=0;whiteSpace=wrap;html=1;fontColor=#333333;" parent="1" vertex="1">
          <mxGeometry x="1080" y="600" width="120" height="80" as="geometry" />
        </mxCell>
        <mxCell id="c_Ia4zeI4B_aajXnBUTX-13" value="" style="endArrow=block;html=1;rounded=0;entryX=0.5;entryY=1;entryDx=0;entryDy=0;exitX=0.5;exitY=0;exitDx=0;exitDy=0;dashed=1;endFill=0;edgeStyle=orthogonalEdgeStyle;" parent="1" source="c_Ia4zeI4B_aajXnBUTX-12" target="c_Ia4zeI4B_aajXnBUTX-5" edge="1">
          <mxGeometry width="50" height="50" relative="1" as="geometry">
            <mxPoint x="890" y="270" as="sourcePoint" />
            <mxPoint x="850" y="250" as="targetPoint" />
          </mxGeometry>
        </mxCell>
        <mxCell id="c_Ia4zeI4B_aajXnBUTX-14" value="" style="endArrow=block;html=1;rounded=0;entryX=1;entryY=0.5;entryDx=0;entryDy=0;exitX=0;exitY=0.5;exitDx=0;exitDy=0;dashed=1;endFill=0;edgeStyle=orthogonalEdgeStyle;" parent="1" source="8Rx44zWbmar0orGI43Fp-9" target="8Rx44zWbmar0orGI43Fp-5" edge="1">
          <mxGeometry width="50" height="50" relative="1" as="geometry">
            <mxPoint x="850" y="270" as="sourcePoint" />
            <mxPoint x="810" y="250" as="targetPoint" />
          </mxGeometry>
        </mxCell>
        <mxCell id="c_Ia4zeI4B_aajXnBUTX-15" value="" style="endArrow=block;html=1;rounded=0;entryX=1;entryY=0.5;entryDx=0;entryDy=0;exitX=0;exitY=0.5;exitDx=0;exitDy=0;dashed=1;endFill=0;edgeStyle=orthogonalEdgeStyle;" parent="1" source="8Rx44zWbmar0orGI43Fp-8" target="8Rx44zWbmar0orGI43Fp-5" edge="1">
          <mxGeometry width="50" height="50" relative="1" as="geometry">
            <mxPoint x="850" y="270" as="sourcePoint" />
            <mxPoint x="810" y="250" as="targetPoint" />
          </mxGeometry>
        </mxCell>
        <mxCell id="c_Ia4zeI4B_aajXnBUTX-16" value="" style="endArrow=block;html=1;rounded=0;entryX=1;entryY=0.5;entryDx=0;entryDy=0;exitX=0;exitY=0.5;exitDx=0;exitDy=0;dashed=1;endFill=0;edgeStyle=orthogonalEdgeStyle;" parent="1" source="8Rx44zWbmar0orGI43Fp-7" target="8Rx44zWbmar0orGI43Fp-5" edge="1">
          <mxGeometry width="50" height="50" relative="1" as="geometry">
            <mxPoint x="850" y="270" as="sourcePoint" />
            <mxPoint x="810" y="250" as="targetPoint" />
          </mxGeometry>
        </mxCell>
        <mxCell id="c_Ia4zeI4B_aajXnBUTX-17" value="" style="endArrow=block;html=1;rounded=0;entryX=1;entryY=0.5;entryDx=0;entryDy=0;exitX=0;exitY=0.5;exitDx=0;exitDy=0;dashed=1;endFill=0;edgeStyle=orthogonalEdgeStyle;" parent="1" source="8Rx44zWbmar0orGI43Fp-6" target="8Rx44zWbmar0orGI43Fp-5" edge="1">
          <mxGeometry width="50" height="50" relative="1" as="geometry">
            <mxPoint x="850" y="270" as="sourcePoint" />
            <mxPoint x="810" y="250" as="targetPoint" />
          </mxGeometry>
        </mxCell>
        <mxCell id="c_Ia4zeI4B_aajXnBUTX-18" value="1" style="endArrow=open;html=1;rounded=0;entryX=0;entryY=0.5;entryDx=0;entryDy=0;exitX=1;exitY=0.5;exitDx=0;exitDy=0;startArrow=diamond;startFill=1;endFill=0;" parent="1" source="8Rx44zWbmar0orGI43Fp-1" target="8Rx44zWbmar0orGI43Fp-5" edge="1">
          <mxGeometry x="-0.75" y="20" width="50" height="50" relative="1" as="geometry">
            <mxPoint x="190" y="260" as="sourcePoint" />
            <mxPoint x="140" y="160" as="targetPoint" />
            <mxPoint as="offset" />
          </mxGeometry>
        </mxCell>
        <mxCell id="_8IDQQtwm1ryyyibQjXm-4" value="0..70" style="edgeLabel;html=1;align=center;verticalAlign=middle;resizable=0;points=[];" parent="c_Ia4zeI4B_aajXnBUTX-18" vertex="1" connectable="0">
          <mxGeometry x="0.5" y="1" relative="1" as="geometry">
            <mxPoint y="-19" as="offset" />
          </mxGeometry>
        </mxCell>
        <mxCell id="c_Ia4zeI4B_aajXnBUTX-19" value="1" style="endArrow=open;html=1;rounded=0;entryX=0;entryY=0.75;entryDx=0;entryDy=0;exitX=1;exitY=0.5;exitDx=0;exitDy=0;startArrow=diamond;startFill=1;endFill=0;edgeStyle=orthogonalEdgeStyle;" parent="1" source="8Rx44zWbmar0orGI43Fp-3" target="8Rx44zWbmar0orGI43Fp-5" edge="1">
          <mxGeometry x="-0.9091" y="20" width="50" height="50" relative="1" as="geometry">
            <mxPoint x="190" y="260" as="sourcePoint" />
            <mxPoint x="140" y="160" as="targetPoint" />
            <mxPoint as="offset" />
          </mxGeometry>
        </mxCell>
        <mxCell id="_8IDQQtwm1ryyyibQjXm-5" value="0..*" style="edgeLabel;html=1;align=center;verticalAlign=middle;resizable=0;points=[];" parent="c_Ia4zeI4B_aajXnBUTX-19" vertex="1" connectable="0">
          <mxGeometry x="0.0909" y="-2" relative="1" as="geometry">
            <mxPoint x="18" y="-40" as="offset" />
          </mxGeometry>
        </mxCell>
        <mxCell id="c_Ia4zeI4B_aajXnBUTX-23" value="" style="endArrow=none;html=1;rounded=0;" parent="1" edge="1">
          <mxGeometry width="50" height="50" relative="1" as="geometry">
            <mxPoint x="1240" y="1471" as="sourcePoint" />
            <mxPoint x="1240" y="-3120" as="targetPoint" />
          </mxGeometry>
        </mxCell>
        <mxCell id="c_Ia4zeI4B_aajXnBUTX-114" value="からだパーツカードの状態が感染のときに&lt;br&gt;ウィルスカードを適用すると状態が発症となり、2枚のウィルスカードと一緒に捨て札に置く" style="rounded=0;whiteSpace=wrap;html=1;fillColor=#FFFFCC;strokeColor=#CCCCCC;fontColor=#333333;align=left;verticalAlign=top;spacing=8;" parent="1" vertex="1">
          <mxGeometry x="2639" y="730" width="281" height="100" as="geometry" />
        </mxCell>
        <mxCell id="c_Ia4zeI4B_aajXnBUTX-132" value="からだパーツカードの状態が健康のときに&lt;br&gt;ウィルスカードを適用すると状態が感染になる" style="rounded=0;whiteSpace=wrap;html=1;fillColor=#FFFFCC;strokeColor=#CCCCCC;fontColor=#333333;align=left;verticalAlign=top;spacing=8;" parent="1" vertex="1">
          <mxGeometry x="1840" y="730" width="281" height="100" as="geometry" />
        </mxCell>
        <mxCell id="c_Ia4zeI4B_aajXnBUTX-134" value="からだパーツカードの状態が感染のときに&lt;br&gt;薬カードを適用すると状態が健康となり、ウィルスカードと薬カードを捨て札に置く" style="rounded=0;whiteSpace=wrap;html=1;fillColor=#FFFFCC;strokeColor=#CCCCCC;fontColor=#333333;align=left;verticalAlign=top;spacing=8;" parent="1" vertex="1">
          <mxGeometry x="2240" y="730" width="280" height="100" as="geometry" />
        </mxCell>
        <mxCell id="c_Ia4zeI4B_aajXnBUTX-136" value="(からだパーツ&lt;br&gt;カード)&lt;br&gt;&lt;div style=&quot;text-align: left;&quot;&gt;&lt;span style=&quot;background-color: initial;&quot;&gt;- 色: 赤&lt;/span&gt;&lt;/div&gt;&lt;div style=&quot;text-align: left;&quot;&gt;&lt;span style=&quot;background-color: initial;&quot;&gt;- 状態: 健康&lt;/span&gt;&lt;/div&gt;" style="rounded=0;whiteSpace=wrap;html=1;strokeColor=#6c8ebf;fillColor=#dae8fc;" parent="1" vertex="1">
          <mxGeometry x="1840" y="920" width="120" height="80" as="geometry" />
        </mxCell>
        <mxCell id="c_Ia4zeI4B_aajXnBUTX-137" value="(ウィルスカード)&lt;br&gt;&lt;div style=&quot;text-align: left;&quot;&gt;&lt;span style=&quot;background-color: initial;&quot;&gt;- 色: 赤&lt;/span&gt;&lt;/div&gt;" style="rounded=0;whiteSpace=wrap;html=1;strokeColor=#6c8ebf;fillColor=#dae8fc;" parent="1" vertex="1">
          <mxGeometry x="2000" y="1080" width="120" height="80" as="geometry" />
        </mxCell>
        <mxCell id="c_Ia4zeI4B_aajXnBUTX-139" value="(からだパーツ&lt;br&gt;カード)&lt;br&gt;&lt;div style=&quot;text-align: left;&quot;&gt;&lt;span style=&quot;background-color: initial;&quot;&gt;- 色: 赤&lt;/span&gt;&lt;/div&gt;&lt;div style=&quot;text-align: left;&quot;&gt;&lt;span style=&quot;background-color: initial;&quot;&gt;- 状態: 感染&lt;/span&gt;&lt;/div&gt;" style="rounded=0;whiteSpace=wrap;html=1;strokeColor=#6c8ebf;fillColor=#dae8fc;" parent="1" vertex="1">
          <mxGeometry x="1840" y="1080" width="120" height="80" as="geometry" />
        </mxCell>
        <mxCell id="c_Ia4zeI4B_aajXnBUTX-140" value="" style="strokeWidth=1;html=1;shape=mxgraph.flowchart.merge_or_storage;whiteSpace=wrap;strokeColor=#333333;" parent="1" vertex="1">
          <mxGeometry x="1880" y="1030" width="40" height="20" as="geometry" />
        </mxCell>
        <mxCell id="c_Ia4zeI4B_aajXnBUTX-142" value="適用" style="rounded=0;orthogonalLoop=1;jettySize=auto;html=1;endArrow=none;endFill=0;fillColor=#dae8fc;strokeColor=#6c8ebf;entryX=1;entryY=0.5;entryDx=0;entryDy=0;exitX=0;exitY=0.5;exitDx=0;exitDy=0;" parent="1" source="c_Ia4zeI4B_aajXnBUTX-137" target="c_Ia4zeI4B_aajXnBUTX-139" edge="1">
          <mxGeometry y="-20" relative="1" as="geometry">
            <mxPoint x="2260" y="800" as="sourcePoint" />
            <mxPoint x="2020" y="820" as="targetPoint" />
            <mxPoint as="offset" />
          </mxGeometry>
        </mxCell>
        <mxCell id="c_Ia4zeI4B_aajXnBUTX-144" value="(からだパーツ&lt;br&gt;カード)&lt;br&gt;&lt;div style=&quot;text-align: left;&quot;&gt;&lt;span style=&quot;background-color: initial;&quot;&gt;- 色: 赤&lt;/span&gt;&lt;/div&gt;&lt;div style=&quot;text-align: left;&quot;&gt;&lt;span style=&quot;background-color: initial;&quot;&gt;- 状態: 感染&lt;/span&gt;&lt;/div&gt;" style="rounded=0;whiteSpace=wrap;html=1;strokeColor=#6c8ebf;fillColor=#dae8fc;" parent="1" vertex="1">
          <mxGeometry x="2640" y="920" width="120" height="80" as="geometry" />
        </mxCell>
        <mxCell id="c_Ia4zeI4B_aajXnBUTX-145" value="(ウィルスカード)&lt;br&gt;&lt;div style=&quot;text-align: left;&quot;&gt;&lt;span style=&quot;background-color: initial;&quot;&gt;- 色: 赤&lt;/span&gt;&lt;/div&gt;" style="rounded=0;whiteSpace=wrap;html=1;strokeColor=#6c8ebf;fillColor=#dae8fc;" parent="1" vertex="1">
          <mxGeometry x="2800" y="920" width="120" height="80" as="geometry" />
        </mxCell>
        <mxCell id="c_Ia4zeI4B_aajXnBUTX-146" value="" style="rounded=0;orthogonalLoop=1;jettySize=auto;html=1;endArrow=none;endFill=0;fillColor=#dae8fc;strokeColor=#6c8ebf;entryX=1;entryY=0.5;entryDx=0;entryDy=0;exitX=0;exitY=0.5;exitDx=0;exitDy=0;" parent="1" source="c_Ia4zeI4B_aajXnBUTX-145" target="c_Ia4zeI4B_aajXnBUTX-144" edge="1">
          <mxGeometry relative="1" as="geometry">
            <mxPoint x="3060" y="440" as="sourcePoint" />
            <mxPoint x="2820" y="460" as="targetPoint" />
          </mxGeometry>
        </mxCell>
        <mxCell id="c_Ia4zeI4B_aajXnBUTX-147" value="" style="strokeWidth=1;html=1;shape=mxgraph.flowchart.merge_or_storage;whiteSpace=wrap;strokeColor=#333333;" parent="1" vertex="1">
          <mxGeometry x="2759.5" y="1030" width="40" height="20" as="geometry" />
        </mxCell>
        <mxCell id="c_Ia4zeI4B_aajXnBUTX-148" value="(からだパーツ&lt;br&gt;カード)&lt;br&gt;&lt;div style=&quot;text-align: left;&quot;&gt;&lt;span style=&quot;background-color: initial;&quot;&gt;- 色: 赤&lt;/span&gt;&lt;/div&gt;&lt;div style=&quot;text-align: left;&quot;&gt;&lt;span style=&quot;background-color: initial;&quot;&gt;- 状態: 発症&lt;/span&gt;&lt;/div&gt;" style="rounded=0;whiteSpace=wrap;html=1;strokeColor=#6c8ebf;fillColor=#dae8fc;" parent="1" vertex="1">
          <mxGeometry x="2640" y="1080" width="120" height="80" as="geometry" />
        </mxCell>
        <mxCell id="c_Ia4zeI4B_aajXnBUTX-149" value="(ウィルスカード)&lt;br&gt;&lt;div style=&quot;text-align: left;&quot;&gt;&lt;span style=&quot;background-color: initial;&quot;&gt;- 色: 赤&lt;/span&gt;&lt;/div&gt;" style="rounded=0;whiteSpace=wrap;html=1;strokeColor=#6c8ebf;fillColor=#dae8fc;" parent="1" vertex="1">
          <mxGeometry x="2800" y="1080" width="120" height="80" as="geometry" />
        </mxCell>
        <mxCell id="c_Ia4zeI4B_aajXnBUTX-150" value="(ウィルスカード)&lt;br&gt;&lt;div style=&quot;text-align: left;&quot;&gt;&lt;span style=&quot;background-color: initial;&quot;&gt;- 色: 赤&lt;/span&gt;&lt;/div&gt;" style="rounded=0;whiteSpace=wrap;html=1;strokeColor=#6c8ebf;fillColor=#dae8fc;" parent="1" vertex="1">
          <mxGeometry x="2800" y="1180" width="120" height="80" as="geometry" />
        </mxCell>
        <mxCell id="c_Ia4zeI4B_aajXnBUTX-151" value="" style="rounded=0;orthogonalLoop=1;jettySize=auto;html=1;endArrow=none;endFill=0;fillColor=#dae8fc;strokeColor=#6c8ebf;entryX=1;entryY=0.5;entryDx=0;entryDy=0;exitX=0;exitY=0.5;exitDx=0;exitDy=0;" parent="1" source="c_Ia4zeI4B_aajXnBUTX-149" target="c_Ia4zeI4B_aajXnBUTX-148" edge="1">
          <mxGeometry relative="1" as="geometry">
            <mxPoint x="3060" y="440" as="sourcePoint" />
            <mxPoint x="2820" y="460" as="targetPoint" />
          </mxGeometry>
        </mxCell>
        <mxCell id="c_Ia4zeI4B_aajXnBUTX-152" value="適用" style="rounded=0;orthogonalLoop=1;jettySize=auto;html=1;endArrow=none;endFill=0;fillColor=#dae8fc;strokeColor=#6c8ebf;entryX=1;entryY=0.5;entryDx=0;entryDy=0;exitX=0;exitY=0.5;exitDx=0;exitDy=0;" parent="1" source="c_Ia4zeI4B_aajXnBUTX-150" target="c_Ia4zeI4B_aajXnBUTX-148" edge="1">
          <mxGeometry relative="1" as="geometry">
            <mxPoint x="2810" y="1130" as="sourcePoint" />
            <mxPoint x="2770" y="1130" as="targetPoint" />
          </mxGeometry>
        </mxCell>
        <mxCell id="c_Ia4zeI4B_aajXnBUTX-153" value="" style="endArrow=none;html=1;rounded=0;entryX=0.75;entryY=1;entryDx=0;entryDy=0;dashed=1;exitX=0.5;exitY=0;exitDx=0;exitDy=0;" parent="1" source="c_Ia4zeI4B_aajXnBUTX-141" target="c_Ia4zeI4B_aajXnBUTX-132" edge="1">
          <mxGeometry width="50" height="50" relative="1" as="geometry">
            <mxPoint x="1981" y="880" as="sourcePoint" />
            <mxPoint x="2550" y="410" as="targetPoint" />
          </mxGeometry>
        </mxCell>
        <mxCell id="c_Ia4zeI4B_aajXnBUTX-154" value="" style="endArrow=none;html=1;rounded=0;entryX=0.75;entryY=1;entryDx=0;entryDy=0;exitX=0.5;exitY=0;exitDx=0;exitDy=0;dashed=1;" parent="1" source="c_Ia4zeI4B_aajXnBUTX-143" target="c_Ia4zeI4B_aajXnBUTX-114" edge="1">
          <mxGeometry width="50" height="50" relative="1" as="geometry">
            <mxPoint x="2970" y="610" as="sourcePoint" />
            <mxPoint x="3010" y="550" as="targetPoint" />
          </mxGeometry>
        </mxCell>
        <mxCell id="c_Ia4zeI4B_aajXnBUTX-156" value="(からだパーツ&lt;br&gt;カード)&lt;br&gt;&lt;div style=&quot;text-align: left;&quot;&gt;&lt;span style=&quot;background-color: initial;&quot;&gt;- 色: 赤&lt;/span&gt;&lt;/div&gt;&lt;div style=&quot;text-align: left;&quot;&gt;&lt;span style=&quot;background-color: initial;&quot;&gt;- 状態: 感染&lt;/span&gt;&lt;/div&gt;" style="rounded=0;whiteSpace=wrap;html=1;strokeColor=#6c8ebf;fillColor=#dae8fc;" parent="1" vertex="1">
          <mxGeometry x="2240" y="920" width="120" height="80" as="geometry" />
        </mxCell>
        <mxCell id="c_Ia4zeI4B_aajXnBUTX-157" value="(ウィルスカード)&lt;br&gt;&lt;div style=&quot;text-align: left;&quot;&gt;&lt;span style=&quot;background-color: initial;&quot;&gt;- 色: 赤&lt;/span&gt;&lt;/div&gt;" style="rounded=0;whiteSpace=wrap;html=1;strokeColor=#6c8ebf;fillColor=#dae8fc;" parent="1" vertex="1">
          <mxGeometry x="2400" y="920" width="120" height="80" as="geometry" />
        </mxCell>
        <mxCell id="c_Ia4zeI4B_aajXnBUTX-158" value="" style="rounded=0;orthogonalLoop=1;jettySize=auto;html=1;endArrow=none;endFill=0;fillColor=#dae8fc;strokeColor=#6c8ebf;entryX=1;entryY=0.5;entryDx=0;entryDy=0;exitX=0;exitY=0.5;exitDx=0;exitDy=0;" parent="1" source="c_Ia4zeI4B_aajXnBUTX-157" target="c_Ia4zeI4B_aajXnBUTX-156" edge="1">
          <mxGeometry relative="1" as="geometry">
            <mxPoint x="2660" y="440" as="sourcePoint" />
            <mxPoint x="2420" y="460" as="targetPoint" />
          </mxGeometry>
        </mxCell>
        <mxCell id="c_Ia4zeI4B_aajXnBUTX-159" value="" style="strokeWidth=1;html=1;shape=mxgraph.flowchart.merge_or_storage;whiteSpace=wrap;strokeColor=#333333;" parent="1" vertex="1">
          <mxGeometry x="2360" y="1030" width="40" height="20" as="geometry" />
        </mxCell>
        <mxCell id="c_Ia4zeI4B_aajXnBUTX-160" value="(からだパーツ&lt;br&gt;カード)&lt;br&gt;&lt;div style=&quot;text-align: left;&quot;&gt;&lt;span style=&quot;background-color: initial;&quot;&gt;- 色: 赤&lt;/span&gt;&lt;/div&gt;&lt;div style=&quot;text-align: left;&quot;&gt;&lt;span style=&quot;background-color: initial;&quot;&gt;- 状態: 健康&lt;/span&gt;&lt;/div&gt;" style="rounded=0;whiteSpace=wrap;html=1;strokeColor=#6c8ebf;fillColor=#dae8fc;" parent="1" vertex="1">
          <mxGeometry x="2240" y="1080" width="120" height="80" as="geometry" />
        </mxCell>
        <mxCell id="c_Ia4zeI4B_aajXnBUTX-161" value="(ウィルスカード)&lt;br&gt;&lt;div style=&quot;text-align: left;&quot;&gt;&lt;span style=&quot;background-color: initial;&quot;&gt;- 色: 赤&lt;/span&gt;&lt;/div&gt;" style="rounded=0;whiteSpace=wrap;html=1;strokeColor=#6c8ebf;fillColor=#dae8fc;" parent="1" vertex="1">
          <mxGeometry x="2400" y="1080" width="120" height="80" as="geometry" />
        </mxCell>
        <mxCell id="c_Ia4zeI4B_aajXnBUTX-162" value="" style="rounded=0;orthogonalLoop=1;jettySize=auto;html=1;endArrow=none;endFill=0;fillColor=#dae8fc;strokeColor=#6c8ebf;entryX=1;entryY=0.5;entryDx=0;entryDy=0;exitX=0;exitY=0.5;exitDx=0;exitDy=0;" parent="1" source="c_Ia4zeI4B_aajXnBUTX-161" target="c_Ia4zeI4B_aajXnBUTX-160" edge="1">
          <mxGeometry relative="1" as="geometry">
            <mxPoint x="2660" y="440" as="sourcePoint" />
            <mxPoint x="2420" y="460" as="targetPoint" />
          </mxGeometry>
        </mxCell>
        <mxCell id="c_Ia4zeI4B_aajXnBUTX-164" value="(薬カード)&lt;br&gt;- 色: 赤" style="rounded=0;whiteSpace=wrap;html=1;fillColor=#dae8fc;strokeColor=#6c8ebf;" parent="1" vertex="1">
          <mxGeometry x="2400" y="1180" width="120" height="80" as="geometry" />
        </mxCell>
        <mxCell id="c_Ia4zeI4B_aajXnBUTX-165" value="適用" style="rounded=0;orthogonalLoop=1;jettySize=auto;html=1;endArrow=none;endFill=0;fillColor=#dae8fc;strokeColor=#6c8ebf;entryX=1;entryY=0.5;entryDx=0;entryDy=0;exitX=0;exitY=0.5;exitDx=0;exitDy=0;" parent="1" source="c_Ia4zeI4B_aajXnBUTX-164" target="c_Ia4zeI4B_aajXnBUTX-160" edge="1">
          <mxGeometry relative="1" as="geometry">
            <mxPoint x="2660" y="440" as="sourcePoint" />
            <mxPoint x="2420" y="460" as="targetPoint" />
          </mxGeometry>
        </mxCell>
        <mxCell id="c_Ia4zeI4B_aajXnBUTX-166" value="" style="endArrow=none;html=1;rounded=0;entryX=0.75;entryY=1;entryDx=0;entryDy=0;exitX=0.5;exitY=0;exitDx=0;exitDy=0;dashed=1;" parent="1" source="c_Ia4zeI4B_aajXnBUTX-155" target="c_Ia4zeI4B_aajXnBUTX-134" edge="1">
          <mxGeometry width="50" height="50" relative="1" as="geometry">
            <mxPoint x="1990" y="890" as="sourcePoint" />
            <mxPoint x="2060" y="840" as="targetPoint" />
          </mxGeometry>
        </mxCell>
        <mxCell id="c_Ia4zeI4B_aajXnBUTX-167" value="ワクチンの無効化" style="text;html=1;strokeColor=#333333;fillColor=none;align=center;verticalAlign=top;whiteSpace=wrap;rounded=0;dashed=1;spacing=8;" parent="1" vertex="1">
          <mxGeometry x="2200" y="1640" width="360" height="560" as="geometry" />
        </mxCell>
        <mxCell id="c_Ia4zeI4B_aajXnBUTX-168" value="(からだパーツ&lt;br&gt;カード)&lt;br&gt;&lt;div style=&quot;text-align: left;&quot;&gt;&lt;span style=&quot;background-color: initial;&quot;&gt;- 色: 赤&lt;/span&gt;&lt;/div&gt;&lt;div style=&quot;text-align: left;&quot;&gt;&lt;span style=&quot;background-color: initial;&quot;&gt;- 状態: 仮免疫&lt;/span&gt;&lt;/div&gt;" style="rounded=0;whiteSpace=wrap;html=1;strokeColor=#6c8ebf;fillColor=#dae8fc;" parent="1" vertex="1">
          <mxGeometry x="2240" y="1680" width="120" height="80" as="geometry" />
        </mxCell>
        <mxCell id="c_Ia4zeI4B_aajXnBUTX-169" value="(薬カード)&lt;br&gt;&lt;div style=&quot;text-align: left;&quot;&gt;&lt;span style=&quot;background-color: initial;&quot;&gt;- 色: 赤&lt;/span&gt;&lt;/div&gt;" style="rounded=0;whiteSpace=wrap;html=1;strokeColor=#6c8ebf;fillColor=#dae8fc;" parent="1" vertex="1">
          <mxGeometry x="2400" y="1680" width="120" height="80" as="geometry" />
        </mxCell>
        <mxCell id="c_Ia4zeI4B_aajXnBUTX-170" value="" style="rounded=0;orthogonalLoop=1;jettySize=auto;html=1;endArrow=none;endFill=0;fillColor=#dae8fc;strokeColor=#6c8ebf;entryX=1;entryY=0.5;entryDx=0;entryDy=0;exitX=0;exitY=0.5;exitDx=0;exitDy=0;" parent="1" source="c_Ia4zeI4B_aajXnBUTX-169" target="c_Ia4zeI4B_aajXnBUTX-168" edge="1">
          <mxGeometry relative="1" as="geometry">
            <mxPoint x="2660" y="1200" as="sourcePoint" />
            <mxPoint x="2420" y="1220" as="targetPoint" />
          </mxGeometry>
        </mxCell>
        <mxCell id="c_Ia4zeI4B_aajXnBUTX-171" value="" style="strokeWidth=1;html=1;shape=mxgraph.flowchart.merge_or_storage;whiteSpace=wrap;strokeColor=#333333;" parent="1" vertex="1">
          <mxGeometry x="2360" y="1790" width="40" height="20" as="geometry" />
        </mxCell>
        <mxCell id="c_Ia4zeI4B_aajXnBUTX-172" value="(からだパーツ&lt;br&gt;カード)&lt;br&gt;&lt;div style=&quot;text-align: left;&quot;&gt;&lt;span style=&quot;background-color: initial;&quot;&gt;- 色: 赤&lt;/span&gt;&lt;/div&gt;&lt;div style=&quot;text-align: left;&quot;&gt;&lt;span style=&quot;background-color: initial;&quot;&gt;- 状態: 健康&lt;/span&gt;&lt;/div&gt;" style="rounded=0;whiteSpace=wrap;html=1;strokeColor=#6c8ebf;fillColor=#dae8fc;" parent="1" vertex="1">
          <mxGeometry x="2240" y="1840" width="120" height="80" as="geometry" />
        </mxCell>
        <mxCell id="c_Ia4zeI4B_aajXnBUTX-173" value="(薬カード)&lt;br&gt;&lt;div style=&quot;text-align: left;&quot;&gt;&lt;span style=&quot;background-color: initial;&quot;&gt;- 色: 赤&lt;/span&gt;&lt;/div&gt;" style="rounded=0;whiteSpace=wrap;html=1;strokeColor=#6c8ebf;fillColor=#dae8fc;" parent="1" vertex="1">
          <mxGeometry x="2400" y="1840" width="120" height="80" as="geometry" />
        </mxCell>
        <mxCell id="c_Ia4zeI4B_aajXnBUTX-174" value="" style="rounded=0;orthogonalLoop=1;jettySize=auto;html=1;endArrow=none;endFill=0;fillColor=#dae8fc;strokeColor=#6c8ebf;entryX=1;entryY=0.5;entryDx=0;entryDy=0;exitX=0;exitY=0.5;exitDx=0;exitDy=0;" parent="1" source="c_Ia4zeI4B_aajXnBUTX-173" target="c_Ia4zeI4B_aajXnBUTX-172" edge="1">
          <mxGeometry relative="1" as="geometry">
            <mxPoint x="2660" y="1200" as="sourcePoint" />
            <mxPoint x="2420" y="1220" as="targetPoint" />
          </mxGeometry>
        </mxCell>
        <mxCell id="c_Ia4zeI4B_aajXnBUTX-175" value="(ウィルスカード)&lt;br&gt;- 色: 赤" style="rounded=0;whiteSpace=wrap;html=1;fillColor=#dae8fc;strokeColor=#6c8ebf;" parent="1" vertex="1">
          <mxGeometry x="2400" y="1940" width="120" height="80" as="geometry" />
        </mxCell>
        <mxCell id="c_Ia4zeI4B_aajXnBUTX-176" value="適用" style="rounded=0;orthogonalLoop=1;jettySize=auto;html=1;endArrow=none;endFill=0;fillColor=#dae8fc;strokeColor=#6c8ebf;entryX=1;entryY=0.5;entryDx=0;entryDy=0;exitX=0;exitY=0.5;exitDx=0;exitDy=0;" parent="1" source="c_Ia4zeI4B_aajXnBUTX-175" target="c_Ia4zeI4B_aajXnBUTX-172" edge="1">
          <mxGeometry relative="1" as="geometry">
            <mxPoint x="2660" y="1200" as="sourcePoint" />
            <mxPoint x="2420" y="1220" as="targetPoint" />
          </mxGeometry>
        </mxCell>
        <mxCell id="c_Ia4zeI4B_aajXnBUTX-177" value="からだパーツカードの状態が仮免疫のときに&lt;br&gt;ウィルスカードを適用すると状態が健康となり、薬カードとウィルスカードを捨て札に置く" style="rounded=0;whiteSpace=wrap;html=1;fillColor=#FFFFCC;strokeColor=#CCCCCC;fontColor=#333333;align=left;verticalAlign=top;spacing=8;" parent="1" vertex="1">
          <mxGeometry x="2240" y="1490" width="280" height="100" as="geometry" />
        </mxCell>
        <mxCell id="c_Ia4zeI4B_aajXnBUTX-179" value="(捨て札)" style="rounded=0;whiteSpace=wrap;html=1;fillColor=#dae8fc;strokeColor=#6c8ebf;" parent="1" vertex="1">
          <mxGeometry x="2640" y="1320" width="120" height="80" as="geometry" />
        </mxCell>
        <mxCell id="c_Ia4zeI4B_aajXnBUTX-180" value="置く" style="curved=1;endArrow=open;html=1;rounded=0;edgeStyle=orthogonalEdgeStyle;exitX=0.75;exitY=1;exitDx=0;exitDy=0;entryX=1;entryY=0.5;entryDx=0;entryDy=0;dashed=1;endFill=0;" parent="1" source="c_Ia4zeI4B_aajXnBUTX-178" target="c_Ia4zeI4B_aajXnBUTX-179" edge="1">
          <mxGeometry width="50" height="50" relative="1" as="geometry">
            <mxPoint x="2880" y="1240" as="sourcePoint" />
            <mxPoint x="2930" y="1190" as="targetPoint" />
          </mxGeometry>
        </mxCell>
        <mxCell id="c_Ia4zeI4B_aajXnBUTX-182" value="(捨て札)" style="rounded=0;whiteSpace=wrap;html=1;fillColor=#dae8fc;strokeColor=#6c8ebf;" parent="1" vertex="1">
          <mxGeometry x="2240" y="1320" width="120" height="80" as="geometry" />
        </mxCell>
        <mxCell id="c_Ia4zeI4B_aajXnBUTX-183" value="置く" style="curved=1;endArrow=open;html=1;rounded=0;edgeStyle=orthogonalEdgeStyle;exitX=0.5;exitY=1;exitDx=0;exitDy=0;entryX=1;entryY=0.5;entryDx=0;entryDy=0;dashed=1;endFill=0;" parent="1" source="c_Ia4zeI4B_aajXnBUTX-181" target="c_Ia4zeI4B_aajXnBUTX-182" edge="1">
          <mxGeometry width="50" height="50" relative="1" as="geometry">
            <mxPoint x="2080" y="1240" as="sourcePoint" />
            <mxPoint x="2130" y="1190" as="targetPoint" />
          </mxGeometry>
        </mxCell>
        <mxCell id="c_Ia4zeI4B_aajXnBUTX-185" value="(捨て札)" style="rounded=0;whiteSpace=wrap;html=1;fillColor=#dae8fc;strokeColor=#6c8ebf;" parent="1" vertex="1">
          <mxGeometry x="2240" y="2080" width="120" height="80" as="geometry" />
        </mxCell>
        <mxCell id="c_Ia4zeI4B_aajXnBUTX-186" value="置く" style="curved=1;endArrow=open;html=1;rounded=0;edgeStyle=orthogonalEdgeStyle;exitX=0.5;exitY=1;exitDx=0;exitDy=0;entryX=1;entryY=0.5;entryDx=0;entryDy=0;dashed=1;endFill=0;" parent="1" source="c_Ia4zeI4B_aajXnBUTX-184" target="c_Ia4zeI4B_aajXnBUTX-185" edge="1">
          <mxGeometry width="50" height="50" relative="1" as="geometry">
            <mxPoint x="1680" y="2000" as="sourcePoint" />
            <mxPoint x="1730" y="1950" as="targetPoint" />
          </mxGeometry>
        </mxCell>
        <mxCell id="c_Ia4zeI4B_aajXnBUTX-187" value="" style="endArrow=none;html=1;rounded=0;entryX=0.75;entryY=1;entryDx=0;entryDy=0;exitX=0.5;exitY=0;exitDx=0;exitDy=0;dashed=1;" parent="1" source="c_Ia4zeI4B_aajXnBUTX-167" target="c_Ia4zeI4B_aajXnBUTX-177" edge="1">
          <mxGeometry width="50" height="50" relative="1" as="geometry">
            <mxPoint x="2540" y="1565" as="sourcePoint" />
            <mxPoint x="2610" y="1515" as="targetPoint" />
          </mxGeometry>
        </mxCell>
        <mxCell id="c_Ia4zeI4B_aajXnBUTX-188" value="ワクチン接種" style="text;html=1;strokeColor=#333333;fillColor=none;align=center;verticalAlign=top;whiteSpace=wrap;rounded=0;dashed=1;spacing=8;" parent="1" vertex="1">
          <mxGeometry x="1800.5" y="1640" width="360" height="560" as="geometry" />
        </mxCell>
        <mxCell id="c_Ia4zeI4B_aajXnBUTX-189" value="からだパーツカードの状態が健康のときに&lt;br&gt;薬カードを適用すると状態が仮免疫になる" style="rounded=0;whiteSpace=wrap;html=1;fillColor=#FFFFCC;strokeColor=#CCCCCC;fontColor=#333333;align=left;verticalAlign=top;spacing=8;" parent="1" vertex="1">
          <mxGeometry x="1840.5" y="1490" width="281" height="100" as="geometry" />
        </mxCell>
        <mxCell id="c_Ia4zeI4B_aajXnBUTX-190" value="(からだパーツ&lt;br&gt;カード)&lt;br&gt;&lt;div style=&quot;text-align: left;&quot;&gt;&lt;span style=&quot;background-color: initial;&quot;&gt;- 色: 赤&lt;/span&gt;&lt;/div&gt;&lt;div style=&quot;text-align: left;&quot;&gt;&lt;span style=&quot;background-color: initial;&quot;&gt;- 状態: 健康&lt;/span&gt;&lt;/div&gt;" style="rounded=0;whiteSpace=wrap;html=1;strokeColor=#6c8ebf;fillColor=#dae8fc;" parent="1" vertex="1">
          <mxGeometry x="1840.5" y="1680" width="120" height="80" as="geometry" />
        </mxCell>
        <mxCell id="c_Ia4zeI4B_aajXnBUTX-191" value="(薬カード)&lt;br&gt;&lt;div style=&quot;text-align: left;&quot;&gt;&lt;span style=&quot;background-color: initial;&quot;&gt;- 色: 赤&lt;/span&gt;&lt;/div&gt;" style="rounded=0;whiteSpace=wrap;html=1;strokeColor=#6c8ebf;fillColor=#dae8fc;" parent="1" vertex="1">
          <mxGeometry x="2000.5" y="1840" width="120" height="80" as="geometry" />
        </mxCell>
        <mxCell id="c_Ia4zeI4B_aajXnBUTX-192" value="(からだパーツ&lt;br&gt;カード)&lt;br&gt;&lt;div style=&quot;text-align: left;&quot;&gt;&lt;span style=&quot;background-color: initial;&quot;&gt;- 色: 赤&lt;/span&gt;&lt;/div&gt;&lt;div style=&quot;text-align: left;&quot;&gt;&lt;span style=&quot;background-color: initial;&quot;&gt;- 状態: ワクチン&lt;/span&gt;&lt;/div&gt;" style="rounded=0;whiteSpace=wrap;html=1;strokeColor=#6c8ebf;fillColor=#dae8fc;" parent="1" vertex="1">
          <mxGeometry x="1840.5" y="1840" width="120" height="80" as="geometry" />
        </mxCell>
        <mxCell id="c_Ia4zeI4B_aajXnBUTX-193" value="" style="strokeWidth=1;html=1;shape=mxgraph.flowchart.merge_or_storage;whiteSpace=wrap;strokeColor=#333333;" parent="1" vertex="1">
          <mxGeometry x="1880.5" y="1790" width="40" height="20" as="geometry" />
        </mxCell>
        <mxCell id="c_Ia4zeI4B_aajXnBUTX-194" value="適用" style="rounded=0;orthogonalLoop=1;jettySize=auto;html=1;endArrow=none;endFill=0;fillColor=#dae8fc;strokeColor=#6c8ebf;entryX=1;entryY=0.5;entryDx=0;entryDy=0;exitX=0;exitY=0.5;exitDx=0;exitDy=0;" parent="1" source="c_Ia4zeI4B_aajXnBUTX-191" target="c_Ia4zeI4B_aajXnBUTX-192" edge="1">
          <mxGeometry relative="1" as="geometry">
            <mxPoint x="2260.5" y="1560" as="sourcePoint" />
            <mxPoint x="2020.5" y="1580" as="targetPoint" />
          </mxGeometry>
        </mxCell>
        <mxCell id="c_Ia4zeI4B_aajXnBUTX-195" value="" style="endArrow=none;html=1;rounded=0;entryX=0.75;entryY=1;entryDx=0;entryDy=0;dashed=1;exitX=0.5;exitY=0;exitDx=0;exitDy=0;" parent="1" source="c_Ia4zeI4B_aajXnBUTX-188" target="c_Ia4zeI4B_aajXnBUTX-189" edge="1">
          <mxGeometry width="50" height="50" relative="1" as="geometry">
            <mxPoint x="1981.5" y="1640" as="sourcePoint" />
            <mxPoint x="2550.5" y="1170" as="targetPoint" />
          </mxGeometry>
        </mxCell>
        <mxCell id="c_Ia4zeI4B_aajXnBUTX-198" value="(からだパーツ&lt;br&gt;カード)&lt;br&gt;&lt;div style=&quot;text-align: left;&quot;&gt;&lt;span style=&quot;background-color: initial;&quot;&gt;- 色: 赤&lt;/span&gt;&lt;/div&gt;&lt;div style=&quot;text-align: left;&quot;&gt;&lt;span style=&quot;background-color: initial;&quot;&gt;- 状態: 仮免疫&lt;/span&gt;&lt;/div&gt;" style="rounded=0;whiteSpace=wrap;html=1;strokeColor=#6c8ebf;fillColor=#dae8fc;" parent="1" vertex="1">
          <mxGeometry x="2639.5" y="1680" width="120" height="80" as="geometry" />
        </mxCell>
        <mxCell id="c_Ia4zeI4B_aajXnBUTX-199" value="(薬カード)&lt;br&gt;&lt;div style=&quot;text-align: left;&quot;&gt;&lt;span style=&quot;background-color: initial;&quot;&gt;- 色: 赤&lt;/span&gt;&lt;/div&gt;" style="rounded=0;whiteSpace=wrap;html=1;strokeColor=#6c8ebf;fillColor=#dae8fc;" parent="1" vertex="1">
          <mxGeometry x="2799.5" y="1680" width="120" height="80" as="geometry" />
        </mxCell>
        <mxCell id="c_Ia4zeI4B_aajXnBUTX-200" value="" style="rounded=0;orthogonalLoop=1;jettySize=auto;html=1;endArrow=none;endFill=0;fillColor=#dae8fc;strokeColor=#6c8ebf;entryX=1;entryY=0.5;entryDx=0;entryDy=0;exitX=0;exitY=0.5;exitDx=0;exitDy=0;" parent="1" source="c_Ia4zeI4B_aajXnBUTX-199" target="c_Ia4zeI4B_aajXnBUTX-198" edge="1">
          <mxGeometry relative="1" as="geometry">
            <mxPoint x="3059.5" y="1200" as="sourcePoint" />
            <mxPoint x="2819.5" y="1220" as="targetPoint" />
          </mxGeometry>
        </mxCell>
        <mxCell id="c_Ia4zeI4B_aajXnBUTX-201" value="" style="strokeWidth=1;html=1;shape=mxgraph.flowchart.merge_or_storage;whiteSpace=wrap;strokeColor=#333333;" parent="1" vertex="1">
          <mxGeometry x="2759.5" y="1790" width="40" height="20" as="geometry" />
        </mxCell>
        <mxCell id="c_Ia4zeI4B_aajXnBUTX-202" value="(からだパーツ&lt;br&gt;カード)&lt;br&gt;&lt;div style=&quot;text-align: left;&quot;&gt;&lt;span style=&quot;background-color: initial;&quot;&gt;- 色: 赤&lt;/span&gt;&lt;/div&gt;&lt;div style=&quot;text-align: left;&quot;&gt;&lt;span style=&quot;background-color: initial;&quot;&gt;- 状態: 免疫&lt;/span&gt;&lt;/div&gt;" style="rounded=0;whiteSpace=wrap;html=1;strokeColor=#6c8ebf;fillColor=#dae8fc;" parent="1" vertex="1">
          <mxGeometry x="2639.5" y="1840" width="120" height="80" as="geometry" />
        </mxCell>
        <mxCell id="c_Ia4zeI4B_aajXnBUTX-203" value="(薬カード)&lt;br&gt;&lt;div style=&quot;text-align: left;&quot;&gt;&lt;span style=&quot;background-color: initial;&quot;&gt;- 色: 赤&lt;/span&gt;&lt;/div&gt;" style="rounded=0;whiteSpace=wrap;html=1;strokeColor=#6c8ebf;fillColor=#dae8fc;" parent="1" vertex="1">
          <mxGeometry x="2799.5" y="1840" width="120" height="80" as="geometry" />
        </mxCell>
        <mxCell id="c_Ia4zeI4B_aajXnBUTX-204" value="" style="rounded=0;orthogonalLoop=1;jettySize=auto;html=1;endArrow=none;endFill=0;fillColor=#dae8fc;strokeColor=#6c8ebf;entryX=1;entryY=0.5;entryDx=0;entryDy=0;exitX=0;exitY=0.5;exitDx=0;exitDy=0;" parent="1" source="c_Ia4zeI4B_aajXnBUTX-203" target="c_Ia4zeI4B_aajXnBUTX-202" edge="1">
          <mxGeometry relative="1" as="geometry">
            <mxPoint x="3059.5" y="1200" as="sourcePoint" />
            <mxPoint x="2819.5" y="1220" as="targetPoint" />
          </mxGeometry>
        </mxCell>
        <mxCell id="c_Ia4zeI4B_aajXnBUTX-205" value="(薬カード)&lt;br&gt;- 色: 赤" style="rounded=0;whiteSpace=wrap;html=1;fillColor=#dae8fc;strokeColor=#6c8ebf;" parent="1" vertex="1">
          <mxGeometry x="2799.5" y="1940" width="120" height="80" as="geometry" />
        </mxCell>
        <mxCell id="c_Ia4zeI4B_aajXnBUTX-206" value="適用" style="rounded=0;orthogonalLoop=1;jettySize=auto;html=1;endArrow=none;endFill=0;fillColor=#dae8fc;strokeColor=#6c8ebf;entryX=1;entryY=0.5;entryDx=0;entryDy=0;exitX=0;exitY=0.5;exitDx=0;exitDy=0;" parent="1" source="c_Ia4zeI4B_aajXnBUTX-205" target="c_Ia4zeI4B_aajXnBUTX-202" edge="1">
          <mxGeometry relative="1" as="geometry">
            <mxPoint x="3059.5" y="1200" as="sourcePoint" />
            <mxPoint x="2819.5" y="1220" as="targetPoint" />
          </mxGeometry>
        </mxCell>
        <mxCell id="c_Ia4zeI4B_aajXnBUTX-210" value="" style="endArrow=none;html=1;rounded=0;entryX=0.75;entryY=1;entryDx=0;entryDy=0;exitX=0.5;exitY=0;exitDx=0;exitDy=0;dashed=1;" parent="1" source="c_Ia4zeI4B_aajXnBUTX-197" edge="1">
          <mxGeometry width="50" height="50" relative="1" as="geometry">
            <mxPoint x="2939.5" y="1565" as="sourcePoint" />
            <mxPoint x="2849.5" y="1590" as="targetPoint" />
          </mxGeometry>
        </mxCell>
        <mxCell id="c_Ia4zeI4B_aajXnBUTX-211" value="からだパーツカードの状態が仮免疫のときに薬カードを適用すると状態が免疫となり、ウィルスカードや医療カードの影響を受けなくなる" style="rounded=0;whiteSpace=wrap;html=1;fillColor=#FFFFCC;strokeColor=#CCCCCC;fontColor=#333333;align=left;verticalAlign=top;spacing=8;" parent="1" vertex="1">
          <mxGeometry x="2640" y="1490" width="280" height="100" as="geometry" />
        </mxCell>
        <mxCell id="c_Ia4zeI4B_aajXnBUTX-213" value="置く" style="endArrow=open;html=1;rounded=0;entryX=0;entryY=0.25;entryDx=0;entryDy=0;exitX=0.5;exitY=0;exitDx=0;exitDy=0;edgeStyle=orthogonalEdgeStyle;startArrow=diamond;startFill=1;endFill=0;" parent="1" source="8Rx44zWbmar0orGI43Fp-4" target="8Rx44zWbmar0orGI43Fp-6" edge="1">
          <mxGeometry x="0.1563" y="10" width="50" height="50" relative="1" as="geometry">
            <mxPoint x="190" y="260" as="sourcePoint" />
            <mxPoint x="140" y="160" as="targetPoint" />
            <Array as="points">
              <mxPoint x="140" y="100" />
            </Array>
            <mxPoint as="offset" />
          </mxGeometry>
        </mxCell>
        <mxCell id="c_Ia4zeI4B_aajXnBUTX-216" value="0..4" style="edgeLabel;html=1;align=center;verticalAlign=middle;resizable=0;points=[];" parent="c_Ia4zeI4B_aajXnBUTX-213" vertex="1" connectable="0">
          <mxGeometry x="0.8909" y="4" relative="1" as="geometry">
            <mxPoint x="16" y="-6" as="offset" />
          </mxGeometry>
        </mxCell>
        <mxCell id="FOFlCYJtAKpA-u1vs3Dm-1" value="1" style="edgeLabel;html=1;align=center;verticalAlign=middle;resizable=0;points=[];" parent="c_Ia4zeI4B_aajXnBUTX-213" vertex="1" connectable="0">
          <mxGeometry x="-0.9109" y="-2" relative="1" as="geometry">
            <mxPoint x="-22" y="9" as="offset" />
          </mxGeometry>
        </mxCell>
        <mxCell id="c_Ia4zeI4B_aajXnBUTX-214" value="1" style="endArrow=open;html=1;rounded=0;entryX=0.5;entryY=1;entryDx=0;entryDy=0;exitX=0.5;exitY=1;exitDx=0;exitDy=0;edgeStyle=orthogonalEdgeStyle;endFill=0;startArrow=diamond;startFill=1;" parent="1" source="8Rx44zWbmar0orGI43Fp-2" target="8Rx44zWbmar0orGI43Fp-5" edge="1">
          <mxGeometry x="-0.9444" y="-20" width="50" height="50" relative="1" as="geometry">
            <mxPoint x="190" y="260" as="sourcePoint" />
            <mxPoint x="140" y="160" as="targetPoint" />
            <Array as="points">
              <mxPoint x="-60" y="480" />
              <mxPoint x="540" y="480" />
            </Array>
            <mxPoint as="offset" />
          </mxGeometry>
        </mxCell>
        <mxCell id="c_Ia4zeI4B_aajXnBUTX-215" value="0..3" style="edgeLabel;html=1;align=center;verticalAlign=middle;resizable=0;points=[];" parent="c_Ia4zeI4B_aajXnBUTX-214" vertex="1" connectable="0">
          <mxGeometry x="0.8583" y="4" relative="1" as="geometry">
            <mxPoint x="24" y="-31" as="offset" />
          </mxGeometry>
        </mxCell>
        <mxCell id="TbHEsB5lAsCwyxfGFnlS-1" value="置く" style="endArrow=none;html=1;rounded=0;entryX=1;entryY=0.75;entryDx=0;entryDy=0;exitX=1;exitY=0.5;exitDx=0;exitDy=0;startArrow=open;startFill=0;edgeStyle=orthogonalEdgeStyle;" parent="1" source="8Rx44zWbmar0orGI43Fp-7" target="8Rx44zWbmar0orGI43Fp-6" edge="1">
          <mxGeometry width="50" height="50" relative="1" as="geometry">
            <mxPoint x="330" y="330" as="sourcePoint" />
            <mxPoint x="880" y="480" as="targetPoint" />
            <Array as="points">
              <mxPoint x="880" y="240" />
              <mxPoint x="880" y="140" />
            </Array>
          </mxGeometry>
        </mxCell>
        <mxCell id="TbHEsB5lAsCwyxfGFnlS-5" value="0..1" style="edgeLabel;html=1;align=center;verticalAlign=middle;resizable=0;points=[];" parent="TbHEsB5lAsCwyxfGFnlS-1" vertex="1" connectable="0">
          <mxGeometry x="0.7556" relative="1" as="geometry">
            <mxPoint x="-2" y="-10" as="offset" />
          </mxGeometry>
        </mxCell>
        <mxCell id="TbHEsB5lAsCwyxfGFnlS-6" value="0..2" style="edgeLabel;html=1;align=center;verticalAlign=middle;resizable=0;points=[];" parent="TbHEsB5lAsCwyxfGFnlS-1" vertex="1" connectable="0">
          <mxGeometry x="-0.7889" relative="1" as="geometry">
            <mxPoint y="-10" as="offset" />
          </mxGeometry>
        </mxCell>
        <mxCell id="TbHEsB5lAsCwyxfGFnlS-2" value="置く" style="endArrow=none;html=1;rounded=0;entryX=1;entryY=0.25;entryDx=0;entryDy=0;exitX=1;exitY=0.5;exitDx=0;exitDy=0;startArrow=open;startFill=0;edgeStyle=orthogonalEdgeStyle;" parent="1" source="8Rx44zWbmar0orGI43Fp-8" target="8Rx44zWbmar0orGI43Fp-6" edge="1">
          <mxGeometry width="50" height="50" relative="1" as="geometry">
            <mxPoint x="330" y="330" as="sourcePoint" />
            <mxPoint x="880" y="480" as="targetPoint" />
            <Array as="points">
              <mxPoint x="920" y="360" />
              <mxPoint x="920" y="100" />
            </Array>
            <mxPoint as="offset" />
          </mxGeometry>
        </mxCell>
        <mxCell id="TbHEsB5lAsCwyxfGFnlS-3" value="0..1" style="edgeLabel;html=1;align=center;verticalAlign=middle;resizable=0;points=[];" parent="TbHEsB5lAsCwyxfGFnlS-2" vertex="1" connectable="0">
          <mxGeometry x="0.8905" y="2" relative="1" as="geometry">
            <mxPoint x="-3" y="-12" as="offset" />
          </mxGeometry>
        </mxCell>
        <mxCell id="TbHEsB5lAsCwyxfGFnlS-4" value="0..2" style="edgeLabel;html=1;align=center;verticalAlign=middle;resizable=0;points=[];" parent="TbHEsB5lAsCwyxfGFnlS-2" vertex="1" connectable="0">
          <mxGeometry x="-0.8476" y="-3" relative="1" as="geometry">
            <mxPoint x="-12" y="-13" as="offset" />
          </mxGeometry>
        </mxCell>
        <mxCell id="h-tjwGrXuljhetKIq6Q1-1" value="組み立てる&lt;br&gt;Assemble" style="rounded=0;whiteSpace=wrap;html=1;fontColor=#333333;" parent="1" vertex="1">
          <mxGeometry x="480" y="-160" width="120" height="80" as="geometry" />
        </mxCell>
        <mxCell id="h-tjwGrXuljhetKIq6Q1-2" value="保護する&lt;br&gt;Protection" style="rounded=0;whiteSpace=wrap;html=1;fontColor=#333333;" parent="1" vertex="1">
          <mxGeometry x="640" y="-160" width="120" height="80" as="geometry" />
        </mxCell>
        <mxCell id="h-tjwGrXuljhetKIq6Q1-3" value="妨害する&lt;br&gt;Interference" style="rounded=0;whiteSpace=wrap;html=1;fontColor=#333333;" parent="1" vertex="1">
          <mxGeometry x="800" y="-160" width="120" height="80" as="geometry" />
        </mxCell>
        <mxCell id="h-tjwGrXuljhetKIq6Q1-4" value="&amp;lt;&amp;lt;interface&amp;gt;&amp;gt;&lt;br&gt;アクション/戦略&lt;br&gt;Action/Strategy" style="rounded=0;whiteSpace=wrap;html=1;fontColor=#333333;" parent="1" vertex="1">
          <mxGeometry x="640" y="-280" width="120" height="80" as="geometry" />
        </mxCell>
        <mxCell id="h-tjwGrXuljhetKIq6Q1-5" value="- 組み立て可能: Assembled&lt;br&gt;- 保護可能: Protectable&lt;br&gt;- 妨害可能: Interruptible" style="rounded=0;whiteSpace=wrap;html=1;fillColor=#FFFFCC;strokeColor=#CCCCCC;fontColor=#333333;align=left;verticalAlign=top;spacing=8;" parent="1" vertex="1">
          <mxGeometry x="840" y="-320" width="200" height="80" as="geometry" />
        </mxCell>
        <mxCell id="h-tjwGrXuljhetKIq6Q1-6" value="ウィルスカード: 健康→感染&lt;br&gt;ウィルスカード: 感染→発症&lt;br&gt;ウィルスカード: 仮免疫→健康&lt;br&gt;&lt;br&gt;薬カード: 健康→仮免疫&lt;br&gt;薬カード: 感染→健康&lt;br&gt;薬カード: 仮免疫→免疫&lt;br&gt;&lt;br&gt;" style="rounded=0;whiteSpace=wrap;html=1;fillColor=#FFFFCC;strokeColor=#CCCCCC;fontColor=#333333;align=left;verticalAlign=top;spacing=8;" parent="1" vertex="1">
          <mxGeometry x="2240" y="520" width="281" height="160" as="geometry" />
        </mxCell>
        <mxCell id="09PAbykDqG3_5M8GWdRA-12" value=":手札&lt;br&gt;- 枚数: 3" style="rounded=0;whiteSpace=wrap;html=1;fillColor=#dae8fc;strokeColor=#6c8ebf;" vertex="1" parent="1">
          <mxGeometry x="1560" y="-2720" width="120" height="80" as="geometry" />
        </mxCell>
        <mxCell id="09PAbykDqG3_5M8GWdRA-14" value="ウィルス:カード&lt;br&gt;&lt;div style=&quot;text-align: left;&quot;&gt;&lt;span style=&quot;background-color: initial;&quot;&gt;- 色=青&lt;/span&gt;&lt;/div&gt;" style="rounded=0;whiteSpace=wrap;html=1;strokeColor=#6c8ebf;fillColor=#dae8fc;" vertex="1" parent="1">
          <mxGeometry x="1720" y="-2840" width="120" height="80" as="geometry" />
        </mxCell>
        <mxCell id="09PAbykDqG3_5M8GWdRA-15" value="薬:カード&lt;br&gt;&lt;div style=&quot;text-align: left;&quot;&gt;&lt;span style=&quot;background-color: initial;&quot;&gt;- 色=黄&lt;/span&gt;&lt;/div&gt;" style="rounded=0;whiteSpace=wrap;html=1;fillColor=#dae8fc;strokeColor=#6c8ebf;" vertex="1" parent="1">
          <mxGeometry x="1720" y="-2720" width="120" height="80" as="geometry" />
        </mxCell>
        <mxCell id="09PAbykDqG3_5M8GWdRA-16" value="" style="endArrow=none;html=1;rounded=0;exitX=1;exitY=0.5;exitDx=0;exitDy=0;entryX=0;entryY=0.5;entryDx=0;entryDy=0;edgeStyle=orthogonalEdgeStyle;curved=1;" edge="1" source="09PAbykDqG3_5M8GWdRA-12" parent="1" target="09PAbykDqG3_5M8GWdRA-38">
          <mxGeometry x="-0.0041" width="50" height="50" relative="1" as="geometry">
            <mxPoint x="1910" y="-2350" as="sourcePoint" />
            <mxPoint x="1749.75" y="-2600" as="targetPoint" />
            <mxPoint as="offset" />
          </mxGeometry>
        </mxCell>
        <mxCell id="09PAbykDqG3_5M8GWdRA-17" value="" style="endArrow=none;html=1;rounded=0;entryX=0;entryY=0.5;entryDx=0;entryDy=0;exitX=1;exitY=0.5;exitDx=0;exitDy=0;edgeStyle=orthogonalEdgeStyle;curved=1;" edge="1" source="09PAbykDqG3_5M8GWdRA-12" target="09PAbykDqG3_5M8GWdRA-15" parent="1">
          <mxGeometry x="-0.0041" width="50" height="50" relative="1" as="geometry">
            <mxPoint x="1910" y="-2350" as="sourcePoint" />
            <mxPoint x="1960" y="-2400" as="targetPoint" />
            <mxPoint as="offset" />
          </mxGeometry>
        </mxCell>
        <mxCell id="09PAbykDqG3_5M8GWdRA-18" value="" style="endArrow=none;html=1;rounded=0;exitX=1;exitY=0.5;exitDx=0;exitDy=0;entryX=0;entryY=0.5;entryDx=0;entryDy=0;edgeStyle=orthogonalEdgeStyle;curved=1;" edge="1" source="09PAbykDqG3_5M8GWdRA-12" target="09PAbykDqG3_5M8GWdRA-14" parent="1">
          <mxGeometry x="-0.0041" width="50" height="50" relative="1" as="geometry">
            <mxPoint x="1910" y="-2350" as="sourcePoint" />
            <mxPoint x="1920" y="-2760" as="targetPoint" />
            <mxPoint as="offset" />
          </mxGeometry>
        </mxCell>
        <mxCell id="09PAbykDqG3_5M8GWdRA-20" value=":からだエリア&lt;br&gt;- 枚数: 0" style="rounded=0;whiteSpace=wrap;html=1;fillColor=#dae8fc;strokeColor=#6c8ebf;" vertex="1" parent="1">
          <mxGeometry x="1960" y="-2720" width="120" height="80" as="geometry" />
        </mxCell>
        <mxCell id="09PAbykDqG3_5M8GWdRA-35" value="置く&lt;br&gt;:アクション" style="rounded=0;whiteSpace=wrap;html=1;fillColor=#e1d5e7;strokeColor=#9673a6;" vertex="1" parent="1">
          <mxGeometry x="1880" y="-2600" width="120" height="80" as="geometry" />
        </mxCell>
        <mxCell id="09PAbykDqG3_5M8GWdRA-36" value="" style="endArrow=none;html=1;rounded=0;entryX=0.75;entryY=1;entryDx=0;entryDy=0;exitX=1;exitY=0.5;exitDx=0;exitDy=0;edgeStyle=orthogonalEdgeStyle;curved=1;" edge="1" parent="1" source="09PAbykDqG3_5M8GWdRA-35" target="09PAbykDqG3_5M8GWdRA-20">
          <mxGeometry x="-0.0041" width="50" height="50" relative="1" as="geometry">
            <mxPoint x="2000" y="-2680" as="sourcePoint" />
            <mxPoint x="1750" y="-2830" as="targetPoint" />
            <Array as="points">
              <mxPoint x="2050" y="-2560" />
            </Array>
            <mxPoint as="offset" />
          </mxGeometry>
        </mxCell>
        <mxCell id="09PAbykDqG3_5M8GWdRA-38" value="からだパーツ&lt;br&gt;:カード&lt;br&gt;&lt;div style=&quot;text-align: left;&quot;&gt;&lt;span style=&quot;background-color: initial;&quot;&gt;- 色=黄&lt;/span&gt;&lt;/div&gt;" style="rounded=0;whiteSpace=wrap;html=1;strokeColor=#6c8ebf;fillColor=#dae8fc;" vertex="1" parent="1">
          <mxGeometry x="1720.25" y="-2600" width="120" height="80" as="geometry" />
        </mxCell>
        <mxCell id="09PAbykDqG3_5M8GWdRA-39" value="" style="endArrow=none;html=1;rounded=0;exitX=0;exitY=0.5;exitDx=0;exitDy=0;entryX=1;entryY=0.5;entryDx=0;entryDy=0;" edge="1" parent="1" source="09PAbykDqG3_5M8GWdRA-35" target="09PAbykDqG3_5M8GWdRA-38">
          <mxGeometry x="-0.0041" width="50" height="50" relative="1" as="geometry">
            <mxPoint x="1910" y="-2350" as="sourcePoint" />
            <mxPoint x="1750" y="-2710" as="targetPoint" />
            <mxPoint as="offset" />
          </mxGeometry>
        </mxCell>
        <mxCell id="09PAbykDqG3_5M8GWdRA-66" value=":手札&lt;br&gt;- 枚数: 2" style="rounded=0;whiteSpace=wrap;html=1;fillColor=#dae8fc;strokeColor=#6c8ebf;" vertex="1" parent="1">
          <mxGeometry x="1560" y="-2240.07" width="120" height="80" as="geometry" />
        </mxCell>
        <mxCell id="09PAbykDqG3_5M8GWdRA-67" value="ウィルス:カード&lt;br&gt;&lt;div style=&quot;text-align: left;&quot;&gt;&lt;span style=&quot;background-color: initial;&quot;&gt;- 色=青&lt;/span&gt;&lt;/div&gt;" style="rounded=0;whiteSpace=wrap;html=1;strokeColor=#6c8ebf;fillColor=#dae8fc;" vertex="1" parent="1">
          <mxGeometry x="1720.5" y="-2360.07" width="120" height="80" as="geometry" />
        </mxCell>
        <mxCell id="09PAbykDqG3_5M8GWdRA-68" value="薬:カード&lt;br&gt;&lt;div style=&quot;text-align: left;&quot;&gt;&lt;span style=&quot;background-color: initial;&quot;&gt;- 色=黄&lt;/span&gt;&lt;/div&gt;" style="rounded=0;whiteSpace=wrap;html=1;fillColor=#dae8fc;strokeColor=#6c8ebf;" vertex="1" parent="1">
          <mxGeometry x="1720" y="-2240.07" width="120" height="80" as="geometry" />
        </mxCell>
        <mxCell id="09PAbykDqG3_5M8GWdRA-69" value="" style="endArrow=none;html=1;rounded=0;exitX=1;exitY=0.5;exitDx=0;exitDy=0;entryX=0;entryY=0.5;entryDx=0;entryDy=0;" edge="1" source="09PAbykDqG3_5M8GWdRA-72" target="09PAbykDqG3_5M8GWdRA-75" parent="1">
          <mxGeometry x="-0.0041" width="50" height="50" relative="1" as="geometry">
            <mxPoint x="1830" y="-1990.07" as="sourcePoint" />
            <mxPoint x="1669.75" y="-2240.07" as="targetPoint" />
            <mxPoint as="offset" />
          </mxGeometry>
        </mxCell>
        <mxCell id="09PAbykDqG3_5M8GWdRA-70" value="" style="endArrow=none;html=1;rounded=0;entryX=0;entryY=0.5;entryDx=0;entryDy=0;exitX=1;exitY=0.5;exitDx=0;exitDy=0;edgeStyle=orthogonalEdgeStyle;curved=1;" edge="1" source="09PAbykDqG3_5M8GWdRA-66" target="09PAbykDqG3_5M8GWdRA-68" parent="1">
          <mxGeometry x="-0.0041" width="50" height="50" relative="1" as="geometry">
            <mxPoint x="1910" y="-1990.07" as="sourcePoint" />
            <mxPoint x="1960" y="-2040.07" as="targetPoint" />
            <mxPoint as="offset" />
          </mxGeometry>
        </mxCell>
        <mxCell id="09PAbykDqG3_5M8GWdRA-71" value="" style="endArrow=none;html=1;rounded=0;entryX=0;entryY=0.5;entryDx=0;entryDy=0;exitX=1;exitY=0.5;exitDx=0;exitDy=0;edgeStyle=orthogonalEdgeStyle;curved=1;" edge="1" source="09PAbykDqG3_5M8GWdRA-66" target="09PAbykDqG3_5M8GWdRA-67" parent="1">
          <mxGeometry x="-0.0041" width="50" height="50" relative="1" as="geometry">
            <mxPoint x="1910" y="-1990.07" as="sourcePoint" />
            <mxPoint x="1960" y="-2040.07" as="targetPoint" />
            <mxPoint as="offset" />
          </mxGeometry>
        </mxCell>
        <mxCell id="09PAbykDqG3_5M8GWdRA-72" value=":からだエリア&lt;br&gt;- 枚数: 1" style="rounded=0;whiteSpace=wrap;html=1;fillColor=#dae8fc;strokeColor=#6c8ebf;" vertex="1" parent="1">
          <mxGeometry x="1960" y="-2240.07" width="120" height="80" as="geometry" />
        </mxCell>
        <mxCell id="09PAbykDqG3_5M8GWdRA-75" value="からだパーツ&lt;br&gt;:カード&lt;br&gt;&lt;div style=&quot;text-align: left;&quot;&gt;&lt;span style=&quot;background-color: initial;&quot;&gt;- 色=黄&lt;/span&gt;&lt;/div&gt;" style="rounded=0;whiteSpace=wrap;html=1;strokeColor=#6c8ebf;fillColor=#dae8fc;" vertex="1" parent="1">
          <mxGeometry x="2120" y="-2240.07" width="120" height="80" as="geometry" />
        </mxCell>
        <mxCell id="09PAbykDqG3_5M8GWdRA-77" value="" style="strokeWidth=1;html=1;shape=mxgraph.flowchart.merge_or_storage;whiteSpace=wrap;rotation=0;strokeColor=#9673a6;fillColor=#e1d5e7;" vertex="1" parent="1">
          <mxGeometry x="1920" y="-2470" width="40" height="20" as="geometry" />
        </mxCell>
        <mxCell id="09PAbykDqG3_5M8GWdRA-79" value="- からだエリアにおけるからだパーツカードは最大4枚まで&lt;br&gt;- からだエリアに同じ色のからだパーツカードは置けない" style="rounded=0;whiteSpace=wrap;html=1;fillColor=#FFFFCC;strokeColor=#CCCCCC;fontColor=#333333;align=left;verticalAlign=top;spacing=8;" vertex="1" parent="1">
          <mxGeometry x="2120" y="-2760" width="360" height="80" as="geometry" />
        </mxCell>
        <mxCell id="09PAbykDqG3_5M8GWdRA-80" value="" style="endArrow=none;html=1;rounded=0;entryX=1;entryY=0.25;entryDx=0;entryDy=0;dashed=1;exitX=0;exitY=0.5;exitDx=0;exitDy=0;" edge="1" parent="1" source="09PAbykDqG3_5M8GWdRA-79" target="09PAbykDqG3_5M8GWdRA-20">
          <mxGeometry width="50" height="50" relative="1" as="geometry">
            <mxPoint x="2220" y="-2710" as="sourcePoint" />
            <mxPoint x="2190" y="-2650" as="targetPoint" />
          </mxGeometry>
        </mxCell>
        <mxCell id="09PAbykDqG3_5M8GWdRA-81" value="" style="endArrow=none;dashed=1;html=1;rounded=0;" edge="1" parent="1">
          <mxGeometry width="50" height="50" relative="1" as="geometry">
            <mxPoint x="1360" y="-2000.07" as="sourcePoint" />
            <mxPoint x="2520" y="-2000.07" as="targetPoint" />
          </mxGeometry>
        </mxCell>
        <mxCell id="09PAbykDqG3_5M8GWdRA-82" value="&lt;b style=&quot;font-size: 16px;&quot;&gt;アクション2&lt;br&gt;&lt;/b&gt;&lt;br&gt;手札から「薬カード」を1枚、&lt;span style=&quot;color: rgb(0, 0, 0); text-align: center;&quot;&gt;自分の「からだパーツカード」に適用する&lt;/span&gt;" style="text;html=1;strokeColor=none;fillColor=none;align=left;verticalAlign=top;whiteSpace=wrap;rounded=0;fontColor=#333333;" vertex="1" parent="1">
          <mxGeometry x="1400" y="-1960" width="480" height="80" as="geometry" />
        </mxCell>
        <mxCell id="09PAbykDqG3_5M8GWdRA-89" value="- 適用できるのは同じ色の薬カードのみ" style="rounded=0;whiteSpace=wrap;html=1;fillColor=#FFFFCC;strokeColor=#CCCCCC;fontColor=#333333;align=left;verticalAlign=top;spacing=8;" vertex="1" parent="1">
          <mxGeometry x="2120" y="-1800.07" width="280" height="80" as="geometry" />
        </mxCell>
        <mxCell id="qIhLdYmx_uWk4HKMJdgb-1" value="" style="rounded=0;whiteSpace=wrap;html=1;fillColor=#dae8fc;strokeColor=#6c8ebf;dashed=1;" vertex="1" parent="1">
          <mxGeometry x="1720" y="-2120.07" width="120" height="80" as="geometry" />
        </mxCell>
        <mxCell id="qIhLdYmx_uWk4HKMJdgb-2" value="" style="endArrow=open;html=1;rounded=0;exitX=1;exitY=0.5;exitDx=0;exitDy=0;dashed=1;entryX=0.5;entryY=1;entryDx=0;entryDy=0;endFill=0;edgeStyle=orthogonalEdgeStyle;curved=1;fillColor=#dae8fc;strokeColor=#6c8ebf;" edge="1" parent="1" source="qIhLdYmx_uWk4HKMJdgb-1" target="09PAbykDqG3_5M8GWdRA-75">
          <mxGeometry width="50" height="50" relative="1" as="geometry">
            <mxPoint x="2300" y="-1710.07" as="sourcePoint" />
            <mxPoint x="2340" y="-1830.07" as="targetPoint" />
          </mxGeometry>
        </mxCell>
        <mxCell id="pBPPr-686neLxa9rwMFT-1" value=":手札&lt;br&gt;- 枚数: 3" style="rounded=0;whiteSpace=wrap;html=1;fillColor=#dae8fc;strokeColor=#6c8ebf;" vertex="1" parent="1">
          <mxGeometry x="1560" y="-1680.07" width="120" height="80" as="geometry" />
        </mxCell>
        <mxCell id="pBPPr-686neLxa9rwMFT-2" value="ウィルス:カード&lt;br&gt;&lt;div style=&quot;text-align: left;&quot;&gt;&lt;span style=&quot;background-color: initial;&quot;&gt;- 色=青&lt;/span&gt;&lt;/div&gt;" style="rounded=0;whiteSpace=wrap;html=1;strokeColor=#6c8ebf;fillColor=#dae8fc;" vertex="1" parent="1">
          <mxGeometry x="1720" y="-1800.07" width="120" height="80" as="geometry" />
        </mxCell>
        <mxCell id="pBPPr-686neLxa9rwMFT-3" value="薬:カード&lt;br&gt;&lt;div style=&quot;text-align: left;&quot;&gt;&lt;span style=&quot;background-color: initial;&quot;&gt;- 色=赤&lt;/span&gt;&lt;/div&gt;" style="rounded=0;whiteSpace=wrap;html=1;fillColor=#dae8fc;strokeColor=#6c8ebf;" vertex="1" parent="1">
          <mxGeometry x="1720" y="-1680.07" width="120" height="80" as="geometry" />
        </mxCell>
        <mxCell id="pBPPr-686neLxa9rwMFT-4" value="" style="endArrow=none;html=1;rounded=0;exitX=1;exitY=0.5;exitDx=0;exitDy=0;entryX=0;entryY=0.5;entryDx=0;entryDy=0;edgeStyle=orthogonalEdgeStyle;curved=1;" edge="1" parent="1" source="pBPPr-686neLxa9rwMFT-1" target="pBPPr-686neLxa9rwMFT-10">
          <mxGeometry x="-0.0041" width="50" height="50" relative="1" as="geometry">
            <mxPoint x="1910" y="-1310.07" as="sourcePoint" />
            <mxPoint x="1749.75" y="-1560.07" as="targetPoint" />
            <mxPoint as="offset" />
          </mxGeometry>
        </mxCell>
        <mxCell id="pBPPr-686neLxa9rwMFT-5" value="" style="endArrow=none;html=1;rounded=0;entryX=0;entryY=0.5;entryDx=0;entryDy=0;exitX=1;exitY=0.5;exitDx=0;exitDy=0;edgeStyle=orthogonalEdgeStyle;curved=1;" edge="1" parent="1" source="pBPPr-686neLxa9rwMFT-1" target="pBPPr-686neLxa9rwMFT-3">
          <mxGeometry x="-0.0041" width="50" height="50" relative="1" as="geometry">
            <mxPoint x="1910" y="-1310.07" as="sourcePoint" />
            <mxPoint x="1960" y="-1360.07" as="targetPoint" />
            <mxPoint as="offset" />
          </mxGeometry>
        </mxCell>
        <mxCell id="pBPPr-686neLxa9rwMFT-6" value="" style="endArrow=none;html=1;rounded=0;exitX=1;exitY=0.5;exitDx=0;exitDy=0;entryX=0;entryY=0.5;entryDx=0;entryDy=0;edgeStyle=orthogonalEdgeStyle;curved=1;" edge="1" parent="1" source="pBPPr-686neLxa9rwMFT-1" target="pBPPr-686neLxa9rwMFT-2">
          <mxGeometry x="-0.0041" width="50" height="50" relative="1" as="geometry">
            <mxPoint x="1910" y="-1310.07" as="sourcePoint" />
            <mxPoint x="1920" y="-1720.07" as="targetPoint" />
            <mxPoint as="offset" />
          </mxGeometry>
        </mxCell>
        <mxCell id="pBPPr-686neLxa9rwMFT-7" value=":からだエリア&lt;br&gt;- 枚数: 1" style="rounded=0;whiteSpace=wrap;html=1;fillColor=#dae8fc;strokeColor=#6c8ebf;" vertex="1" parent="1">
          <mxGeometry x="1960" y="-1680.07" width="120" height="80" as="geometry" />
        </mxCell>
        <mxCell id="pBPPr-686neLxa9rwMFT-8" value="適用する&lt;br&gt;:アクション" style="rounded=0;whiteSpace=wrap;html=1;fillColor=#e1d5e7;strokeColor=#9673a6;" vertex="1" parent="1">
          <mxGeometry x="1880" y="-1560.07" width="120" height="80" as="geometry" />
        </mxCell>
        <mxCell id="pBPPr-686neLxa9rwMFT-9" value="" style="endArrow=none;html=1;rounded=0;exitX=1;exitY=0.5;exitDx=0;exitDy=0;edgeStyle=orthogonalEdgeStyle;curved=1;entryX=0.5;entryY=1;entryDx=0;entryDy=0;" edge="1" parent="1" source="pBPPr-686neLxa9rwMFT-8" target="pBPPr-686neLxa9rwMFT-25">
          <mxGeometry x="-0.0041" width="50" height="50" relative="1" as="geometry">
            <mxPoint x="1910" y="-1310.07" as="sourcePoint" />
            <mxPoint x="2180" y="-1580.07" as="targetPoint" />
            <mxPoint as="offset" />
            <Array as="points">
              <mxPoint x="2180" y="-1520" />
            </Array>
          </mxGeometry>
        </mxCell>
        <mxCell id="pBPPr-686neLxa9rwMFT-10" value="薬:カード&lt;br&gt;&lt;div style=&quot;text-align: left;&quot;&gt;&lt;span style=&quot;background-color: initial;&quot;&gt;- 色=黄&lt;/span&gt;&lt;/div&gt;" style="rounded=0;whiteSpace=wrap;html=1;strokeColor=#6c8ebf;fillColor=#dae8fc;" vertex="1" parent="1">
          <mxGeometry x="1720.25" y="-1560.07" width="120" height="80" as="geometry" />
        </mxCell>
        <mxCell id="pBPPr-686neLxa9rwMFT-11" value="" style="endArrow=none;html=1;rounded=0;exitX=0;exitY=0.5;exitDx=0;exitDy=0;entryX=1;entryY=0.5;entryDx=0;entryDy=0;" edge="1" parent="1" source="pBPPr-686neLxa9rwMFT-8" target="pBPPr-686neLxa9rwMFT-10">
          <mxGeometry x="-0.0041" width="50" height="50" relative="1" as="geometry">
            <mxPoint x="1910" y="-1310.07" as="sourcePoint" />
            <mxPoint x="1750" y="-1670.07" as="targetPoint" />
            <mxPoint as="offset" />
          </mxGeometry>
        </mxCell>
        <mxCell id="pBPPr-686neLxa9rwMFT-12" value=":手札&lt;br&gt;- 枚数: 2" style="rounded=0;whiteSpace=wrap;html=1;fillColor=#dae8fc;strokeColor=#6c8ebf;" vertex="1" parent="1">
          <mxGeometry x="1560" y="-1200" width="120" height="80" as="geometry" />
        </mxCell>
        <mxCell id="pBPPr-686neLxa9rwMFT-13" value="ウィルス:カード&lt;br&gt;&lt;div style=&quot;text-align: left;&quot;&gt;&lt;span style=&quot;background-color: initial;&quot;&gt;- 色=青&lt;/span&gt;&lt;/div&gt;" style="rounded=0;whiteSpace=wrap;html=1;strokeColor=#6c8ebf;fillColor=#dae8fc;" vertex="1" parent="1">
          <mxGeometry x="1720.5" y="-1320" width="120" height="80" as="geometry" />
        </mxCell>
        <mxCell id="pBPPr-686neLxa9rwMFT-14" value="薬:カード&lt;br&gt;&lt;div style=&quot;text-align: left;&quot;&gt;&lt;span style=&quot;background-color: initial;&quot;&gt;- 色=黄&lt;/span&gt;&lt;/div&gt;" style="rounded=0;whiteSpace=wrap;html=1;fillColor=#dae8fc;strokeColor=#6c8ebf;" vertex="1" parent="1">
          <mxGeometry x="1720" y="-1200" width="120" height="80" as="geometry" />
        </mxCell>
        <mxCell id="pBPPr-686neLxa9rwMFT-15" value="" style="endArrow=none;html=1;rounded=0;exitX=1;exitY=0.5;exitDx=0;exitDy=0;entryX=0;entryY=0.5;entryDx=0;entryDy=0;" edge="1" parent="1" source="pBPPr-686neLxa9rwMFT-18" target="pBPPr-686neLxa9rwMFT-19">
          <mxGeometry x="-0.0041" width="50" height="50" relative="1" as="geometry">
            <mxPoint x="1910" y="-950" as="sourcePoint" />
            <mxPoint x="1749.75" y="-1200" as="targetPoint" />
            <mxPoint as="offset" />
          </mxGeometry>
        </mxCell>
        <mxCell id="pBPPr-686neLxa9rwMFT-16" value="" style="endArrow=none;html=1;rounded=0;entryX=0;entryY=0.5;entryDx=0;entryDy=0;exitX=1;exitY=0.5;exitDx=0;exitDy=0;edgeStyle=orthogonalEdgeStyle;curved=1;" edge="1" parent="1" source="pBPPr-686neLxa9rwMFT-12" target="pBPPr-686neLxa9rwMFT-14">
          <mxGeometry x="-0.0041" width="50" height="50" relative="1" as="geometry">
            <mxPoint x="1910" y="-950" as="sourcePoint" />
            <mxPoint x="1960" y="-1000" as="targetPoint" />
            <mxPoint as="offset" />
          </mxGeometry>
        </mxCell>
        <mxCell id="pBPPr-686neLxa9rwMFT-17" value="" style="endArrow=none;html=1;rounded=0;entryX=0;entryY=0.5;entryDx=0;entryDy=0;exitX=1;exitY=0.5;exitDx=0;exitDy=0;edgeStyle=orthogonalEdgeStyle;curved=1;" edge="1" parent="1" source="pBPPr-686neLxa9rwMFT-12" target="pBPPr-686neLxa9rwMFT-13">
          <mxGeometry x="-0.0041" width="50" height="50" relative="1" as="geometry">
            <mxPoint x="1910" y="-950" as="sourcePoint" />
            <mxPoint x="1960" y="-1000" as="targetPoint" />
            <mxPoint as="offset" />
          </mxGeometry>
        </mxCell>
        <mxCell id="pBPPr-686neLxa9rwMFT-18" value=":からだエリア&lt;br&gt;- 枚数: 1" style="rounded=0;whiteSpace=wrap;html=1;fillColor=#dae8fc;strokeColor=#6c8ebf;" vertex="1" parent="1">
          <mxGeometry x="1960" y="-1200" width="120" height="80" as="geometry" />
        </mxCell>
        <mxCell id="pBPPr-686neLxa9rwMFT-19" value="からだパーツ&lt;br&gt;:カード&lt;br&gt;&lt;div style=&quot;text-align: left;&quot;&gt;&lt;span style=&quot;background-color: initial;&quot;&gt;- 色=黄&lt;/span&gt;&lt;/div&gt;" style="rounded=0;whiteSpace=wrap;html=1;strokeColor=#6c8ebf;fillColor=#dae8fc;" vertex="1" parent="1">
          <mxGeometry x="2120" y="-1200" width="120" height="80" as="geometry" />
        </mxCell>
        <mxCell id="pBPPr-686neLxa9rwMFT-20" value="" style="strokeWidth=1;html=1;shape=mxgraph.flowchart.merge_or_storage;whiteSpace=wrap;rotation=0;strokeColor=#9673a6;fillColor=#e1d5e7;" vertex="1" parent="1">
          <mxGeometry x="1920" y="-1430" width="40" height="20" as="geometry" />
        </mxCell>
        <mxCell id="pBPPr-686neLxa9rwMFT-21" value="" style="endArrow=none;html=1;rounded=0;entryX=0.5;entryY=0;entryDx=0;entryDy=0;exitX=0.5;exitY=1;exitDx=0;exitDy=0;dashed=1;" edge="1" parent="1" target="pBPPr-686neLxa9rwMFT-25" source="09PAbykDqG3_5M8GWdRA-89">
          <mxGeometry width="50" height="50" relative="1" as="geometry">
            <mxPoint x="2140" y="-1720.07" as="sourcePoint" />
            <mxPoint x="2190" y="-1610.07" as="targetPoint" />
          </mxGeometry>
        </mxCell>
        <mxCell id="pBPPr-686neLxa9rwMFT-22" value="" style="rounded=0;whiteSpace=wrap;html=1;fillColor=#dae8fc;strokeColor=#6c8ebf;dashed=1;" vertex="1" parent="1">
          <mxGeometry x="1720" y="-1080" width="120" height="80" as="geometry" />
        </mxCell>
        <mxCell id="pBPPr-686neLxa9rwMFT-23" value="" style="endArrow=open;html=1;rounded=0;exitX=1;exitY=0.5;exitDx=0;exitDy=0;dashed=1;entryX=0.5;entryY=1;entryDx=0;entryDy=0;endFill=0;edgeStyle=orthogonalEdgeStyle;curved=1;fillColor=#dae8fc;strokeColor=#6c8ebf;" edge="1" parent="1" source="pBPPr-686neLxa9rwMFT-22" target="pBPPr-686neLxa9rwMFT-24">
          <mxGeometry width="50" height="50" relative="1" as="geometry">
            <mxPoint x="2300" y="-670" as="sourcePoint" />
            <mxPoint x="2340" y="-790" as="targetPoint" />
            <Array as="points">
              <mxPoint x="2260" y="-1040" />
            </Array>
          </mxGeometry>
        </mxCell>
        <mxCell id="pBPPr-686neLxa9rwMFT-24" value="薬:カード&lt;br&gt;&lt;div style=&quot;text-align: left;&quot;&gt;&lt;span style=&quot;background-color: initial;&quot;&gt;- 色=黄&lt;/span&gt;&lt;/div&gt;" style="rounded=0;whiteSpace=wrap;html=1;strokeColor=#6c8ebf;fillColor=#dae8fc;" vertex="1" parent="1">
          <mxGeometry x="2200" y="-1160" width="120" height="80" as="geometry" />
        </mxCell>
        <mxCell id="pBPPr-686neLxa9rwMFT-25" value="からだパーツ&lt;br&gt;:カード&lt;br&gt;&lt;div style=&quot;text-align: left;&quot;&gt;&lt;span style=&quot;background-color: initial;&quot;&gt;- 色=黄&lt;/span&gt;&lt;/div&gt;" style="rounded=0;whiteSpace=wrap;html=1;strokeColor=#6c8ebf;fillColor=#dae8fc;" vertex="1" parent="1">
          <mxGeometry x="2120" y="-1680.07" width="120" height="80" as="geometry" />
        </mxCell>
        <mxCell id="pBPPr-686neLxa9rwMFT-26" value="" style="endArrow=none;html=1;rounded=0;exitX=1;exitY=0.5;exitDx=0;exitDy=0;entryX=0;entryY=0.5;entryDx=0;entryDy=0;" edge="1" parent="1" source="pBPPr-686neLxa9rwMFT-7" target="pBPPr-686neLxa9rwMFT-25">
          <mxGeometry x="-0.0041" width="50" height="50" relative="1" as="geometry">
            <mxPoint x="1830" y="-1150.07" as="sourcePoint" />
            <mxPoint x="1669.75" y="-1400.07" as="targetPoint" />
            <mxPoint as="offset" />
          </mxGeometry>
        </mxCell>
        <mxCell id="pBPPr-686neLxa9rwMFT-27" value="" style="endArrow=none;html=1;rounded=0;exitX=0.5;exitY=0;exitDx=0;exitDy=0;entryX=0.5;entryY=0;entryDx=0;entryDy=0;edgeStyle=orthogonalEdgeStyle;curved=1;" edge="1" parent="1" source="pBPPr-686neLxa9rwMFT-19" target="pBPPr-686neLxa9rwMFT-24">
          <mxGeometry x="-0.0041" width="50" height="50" relative="1" as="geometry">
            <mxPoint x="1830" y="-950" as="sourcePoint" />
            <mxPoint x="1669.75" y="-1200" as="targetPoint" />
            <mxPoint as="offset" />
            <Array as="points">
              <mxPoint x="2180" y="-1240" />
              <mxPoint x="2260" y="-1240" />
            </Array>
          </mxGeometry>
        </mxCell>
        <mxCell id="pBPPr-686neLxa9rwMFT-29" value="" style="endArrow=none;dashed=1;html=1;rounded=0;" edge="1" parent="1">
          <mxGeometry width="50" height="50" relative="1" as="geometry">
            <mxPoint x="1361" y="-960" as="sourcePoint" />
            <mxPoint x="3202.6666666666665" y="-960" as="targetPoint" />
          </mxGeometry>
        </mxCell>
        <mxCell id="YgA03bzmH8YJKxXAZx8s-4" value="" style="edgeStyle=orthogonalEdgeStyle;rounded=0;orthogonalLoop=1;jettySize=auto;html=1;endArrow=none;endFill=0;" edge="1" parent="1" source="pBPPr-686neLxa9rwMFT-30" target="09PAbykDqG3_5M8GWdRA-12">
          <mxGeometry relative="1" as="geometry" />
        </mxCell>
        <mxCell id="pBPPr-686neLxa9rwMFT-30" value="自分:プレイヤー" style="rounded=0;whiteSpace=wrap;html=1;fillColor=#dae8fc;strokeColor=#6c8ebf;" vertex="1" parent="1">
          <mxGeometry x="1400" y="-2720" width="120" height="80" as="geometry" />
        </mxCell>
        <mxCell id="pBPPr-686neLxa9rwMFT-32" value="自分:プレイヤー" style="rounded=0;whiteSpace=wrap;html=1;fillColor=#dae8fc;strokeColor=#6c8ebf;" vertex="1" parent="1">
          <mxGeometry x="1400" y="-1680.07" width="120" height="80" as="geometry" />
        </mxCell>
        <mxCell id="pBPPr-686neLxa9rwMFT-33" value="" style="endArrow=none;html=1;rounded=0;exitX=0;exitY=0.5;exitDx=0;exitDy=0;entryX=1;entryY=0.5;entryDx=0;entryDy=0;" edge="1" parent="1" target="pBPPr-686neLxa9rwMFT-32" source="pBPPr-686neLxa9rwMFT-1">
          <mxGeometry x="-0.0041" width="50" height="50" relative="1" as="geometry">
            <mxPoint x="1560" y="-1640.07" as="sourcePoint" />
            <mxPoint x="1850" y="-1510.07" as="targetPoint" />
            <mxPoint as="offset" />
          </mxGeometry>
        </mxCell>
        <mxCell id="pBPPr-686neLxa9rwMFT-34" value="自分:プレイヤー" style="rounded=0;whiteSpace=wrap;html=1;fillColor=#dae8fc;strokeColor=#6c8ebf;" vertex="1" parent="1">
          <mxGeometry x="1400" y="-1200" width="120" height="80" as="geometry" />
        </mxCell>
        <mxCell id="pBPPr-686neLxa9rwMFT-35" value="" style="endArrow=none;html=1;rounded=0;exitX=0;exitY=0.5;exitDx=0;exitDy=0;entryX=1;entryY=0.5;entryDx=0;entryDy=0;" edge="1" parent="1" target="pBPPr-686neLxa9rwMFT-34" source="pBPPr-686neLxa9rwMFT-12">
          <mxGeometry x="-0.0041" width="50" height="50" relative="1" as="geometry">
            <mxPoint x="1560" y="-1160" as="sourcePoint" />
            <mxPoint x="1850" y="-1030" as="targetPoint" />
            <mxPoint as="offset" />
          </mxGeometry>
        </mxCell>
        <mxCell id="pBPPr-686neLxa9rwMFT-36" value="自分:プレイヤー" style="rounded=0;whiteSpace=wrap;html=1;fillColor=#dae8fc;strokeColor=#6c8ebf;" vertex="1" parent="1">
          <mxGeometry x="1400" y="-2240.07" width="120" height="80" as="geometry" />
        </mxCell>
        <mxCell id="pBPPr-686neLxa9rwMFT-37" value="" style="endArrow=none;html=1;rounded=0;exitX=0;exitY=0.5;exitDx=0;exitDy=0;entryX=1;entryY=0.5;entryDx=0;entryDy=0;" edge="1" parent="1" target="pBPPr-686neLxa9rwMFT-36" source="09PAbykDqG3_5M8GWdRA-66">
          <mxGeometry x="-0.0041" width="50" height="50" relative="1" as="geometry">
            <mxPoint x="1560" y="-2200.07" as="sourcePoint" />
            <mxPoint x="1850" y="-2070.07" as="targetPoint" />
            <mxPoint as="offset" />
          </mxGeometry>
        </mxCell>
        <mxCell id="pBPPr-686neLxa9rwMFT-38" value="&lt;b style=&quot;font-size: 16px;&quot;&gt;アクション3&lt;br&gt;&lt;/b&gt;&lt;br&gt;手札から「ウィルスカード」を1枚、&lt;span style=&quot;color: rgb(0, 0, 0); text-align: center;&quot;&gt;相手の「からだパーツカード」に適用する&lt;/span&gt;" style="text;html=1;strokeColor=none;fillColor=none;align=left;verticalAlign=top;whiteSpace=wrap;rounded=0;fontColor=#333333;" vertex="1" parent="1">
          <mxGeometry x="1401.5" y="-920" width="480" height="80" as="geometry" />
        </mxCell>
        <mxCell id="YgA03bzmH8YJKxXAZx8s-2" value="" style="endArrow=none;html=1;rounded=0;entryX=0;entryY=0.5;entryDx=0;entryDy=0;edgeStyle=orthogonalEdgeStyle;curved=1;exitX=1;exitY=0.5;exitDx=0;exitDy=0;" edge="1" parent="1" source="pBPPr-686neLxa9rwMFT-30" target="09PAbykDqG3_5M8GWdRA-20">
          <mxGeometry x="-0.0041" width="50" height="50" relative="1" as="geometry">
            <mxPoint x="1960" y="-2730" as="sourcePoint" />
            <mxPoint x="2050" y="-2670" as="targetPoint" />
            <mxPoint as="offset" />
            <Array as="points">
              <mxPoint x="1540" y="-2680" />
              <mxPoint x="1540" y="-2880" />
              <mxPoint x="1920" y="-2880" />
              <mxPoint x="1920" y="-2680" />
            </Array>
          </mxGeometry>
        </mxCell>
        <mxCell id="YgA03bzmH8YJKxXAZx8s-3" value="" style="endArrow=none;html=1;rounded=0;entryX=0;entryY=0.5;entryDx=0;entryDy=0;edgeStyle=orthogonalEdgeStyle;curved=1;exitX=1;exitY=0.5;exitDx=0;exitDy=0;" edge="1" parent="1" source="pBPPr-686neLxa9rwMFT-36" target="09PAbykDqG3_5M8GWdRA-72">
          <mxGeometry x="-0.0041" width="50" height="50" relative="1" as="geometry">
            <mxPoint x="1490" y="-2320.07" as="sourcePoint" />
            <mxPoint x="2050" y="-2590.07" as="targetPoint" />
            <mxPoint as="offset" />
            <Array as="points">
              <mxPoint x="1540" y="-2200" />
              <mxPoint x="1540" y="-2400" />
              <mxPoint x="1920" y="-2400" />
              <mxPoint x="1920" y="-2200" />
            </Array>
          </mxGeometry>
        </mxCell>
        <mxCell id="YgA03bzmH8YJKxXAZx8s-6" value="" style="endArrow=none;html=1;rounded=0;entryX=0;entryY=0.5;entryDx=0;entryDy=0;edgeStyle=orthogonalEdgeStyle;curved=1;exitX=1;exitY=0.5;exitDx=0;exitDy=0;" edge="1" parent="1" source="pBPPr-686neLxa9rwMFT-32" target="pBPPr-686neLxa9rwMFT-7">
          <mxGeometry x="-0.0041" width="50" height="50" relative="1" as="geometry">
            <mxPoint x="1520.5" y="-1640.1399999999999" as="sourcePoint" />
            <mxPoint x="2040.5" y="-1640.1399999999999" as="targetPoint" />
            <mxPoint as="offset" />
            <Array as="points">
              <mxPoint x="1540" y="-1640" />
              <mxPoint x="1540" y="-1840" />
              <mxPoint x="1920" y="-1840" />
              <mxPoint x="1920" y="-1640" />
            </Array>
          </mxGeometry>
        </mxCell>
        <mxCell id="YgA03bzmH8YJKxXAZx8s-7" value="" style="endArrow=none;html=1;rounded=0;entryX=0;entryY=0.5;entryDx=0;entryDy=0;edgeStyle=orthogonalEdgeStyle;curved=1;exitX=1;exitY=0.5;exitDx=0;exitDy=0;" edge="1" parent="1" source="pBPPr-686neLxa9rwMFT-34" target="pBPPr-686neLxa9rwMFT-18">
          <mxGeometry x="-0.0041" width="50" height="50" relative="1" as="geometry">
            <mxPoint x="1520.5" y="-1640.1399999999999" as="sourcePoint" />
            <mxPoint x="2040.5" y="-1640.1399999999999" as="targetPoint" />
            <mxPoint as="offset" />
            <Array as="points">
              <mxPoint x="1540" y="-1160" />
              <mxPoint x="1540" y="-1360" />
              <mxPoint x="1920" y="-1360" />
              <mxPoint x="1920" y="-1160" />
            </Array>
          </mxGeometry>
        </mxCell>
        <mxCell id="YgA03bzmH8YJKxXAZx8s-8" value="- 適用できるのは同じ色のウィルスカードのみ" style="rounded=0;whiteSpace=wrap;html=1;fillColor=#FFFFCC;strokeColor=#CCCCCC;fontColor=#333333;align=left;verticalAlign=top;spacing=8;" vertex="1" parent="1">
          <mxGeometry x="2599.5" y="-760.07" width="280" height="80" as="geometry" />
        </mxCell>
        <mxCell id="YgA03bzmH8YJKxXAZx8s-9" value=":手札&lt;br&gt;- 枚数: 3" style="rounded=0;whiteSpace=wrap;html=1;fillColor=#dae8fc;strokeColor=#6c8ebf;" vertex="1" parent="1">
          <mxGeometry x="1560" y="-640.07" width="120" height="80" as="geometry" />
        </mxCell>
        <mxCell id="YgA03bzmH8YJKxXAZx8s-10" value="ウィルス:カード&lt;br&gt;&lt;div style=&quot;text-align: left;&quot;&gt;&lt;span style=&quot;background-color: initial;&quot;&gt;- 色=青&lt;/span&gt;&lt;/div&gt;" style="rounded=0;whiteSpace=wrap;html=1;strokeColor=#6c8ebf;fillColor=#dae8fc;" vertex="1" parent="1">
          <mxGeometry x="1720" y="-760.07" width="120" height="80" as="geometry" />
        </mxCell>
        <mxCell id="YgA03bzmH8YJKxXAZx8s-11" value="薬:カード&lt;br&gt;&lt;div style=&quot;text-align: left;&quot;&gt;&lt;span style=&quot;background-color: initial;&quot;&gt;- 色=赤&lt;/span&gt;&lt;/div&gt;" style="rounded=0;whiteSpace=wrap;html=1;fillColor=#dae8fc;strokeColor=#6c8ebf;" vertex="1" parent="1">
          <mxGeometry x="1720" y="-640.07" width="120" height="80" as="geometry" />
        </mxCell>
        <mxCell id="YgA03bzmH8YJKxXAZx8s-12" value="" style="endArrow=none;html=1;rounded=0;exitX=1;exitY=0.5;exitDx=0;exitDy=0;entryX=0;entryY=0.5;entryDx=0;entryDy=0;edgeStyle=orthogonalEdgeStyle;curved=1;" edge="1" parent="1" source="YgA03bzmH8YJKxXAZx8s-9" target="YgA03bzmH8YJKxXAZx8s-18">
          <mxGeometry x="-0.0041" width="50" height="50" relative="1" as="geometry">
            <mxPoint x="1910" y="-270.07" as="sourcePoint" />
            <mxPoint x="1749.75" y="-520.07" as="targetPoint" />
            <mxPoint as="offset" />
          </mxGeometry>
        </mxCell>
        <mxCell id="YgA03bzmH8YJKxXAZx8s-13" value="" style="endArrow=none;html=1;rounded=0;entryX=0;entryY=0.5;entryDx=0;entryDy=0;exitX=1;exitY=0.5;exitDx=0;exitDy=0;edgeStyle=orthogonalEdgeStyle;curved=1;" edge="1" parent="1" source="YgA03bzmH8YJKxXAZx8s-9" target="YgA03bzmH8YJKxXAZx8s-11">
          <mxGeometry x="-0.0041" width="50" height="50" relative="1" as="geometry">
            <mxPoint x="1910" y="-270.07" as="sourcePoint" />
            <mxPoint x="1960" y="-320.07" as="targetPoint" />
            <mxPoint as="offset" />
          </mxGeometry>
        </mxCell>
        <mxCell id="YgA03bzmH8YJKxXAZx8s-14" value="" style="endArrow=none;html=1;rounded=0;exitX=1;exitY=0.5;exitDx=0;exitDy=0;entryX=0;entryY=0.5;entryDx=0;entryDy=0;edgeStyle=orthogonalEdgeStyle;curved=1;" edge="1" parent="1" source="YgA03bzmH8YJKxXAZx8s-9" target="YgA03bzmH8YJKxXAZx8s-10">
          <mxGeometry x="-0.0041" width="50" height="50" relative="1" as="geometry">
            <mxPoint x="1910" y="-270.07" as="sourcePoint" />
            <mxPoint x="1920" y="-680.07" as="targetPoint" />
            <mxPoint as="offset" />
          </mxGeometry>
        </mxCell>
        <mxCell id="YgA03bzmH8YJKxXAZx8s-15" value=":からだエリア&lt;br&gt;- 枚数: 1" style="rounded=0;whiteSpace=wrap;html=1;fillColor=#dae8fc;strokeColor=#6c8ebf;" vertex="1" parent="1">
          <mxGeometry x="2879.5" y="-640.07" width="120" height="80" as="geometry" />
        </mxCell>
        <mxCell id="YgA03bzmH8YJKxXAZx8s-16" value="適用する&lt;br&gt;:アクション" style="rounded=0;whiteSpace=wrap;html=1;fillColor=#e1d5e7;strokeColor=#9673a6;" vertex="1" parent="1">
          <mxGeometry x="1880" y="-520.07" width="120" height="80" as="geometry" />
        </mxCell>
        <mxCell id="YgA03bzmH8YJKxXAZx8s-17" value="" style="endArrow=none;html=1;rounded=0;exitX=1;exitY=0.5;exitDx=0;exitDy=0;edgeStyle=orthogonalEdgeStyle;curved=1;entryX=0.5;entryY=1;entryDx=0;entryDy=0;" edge="1" parent="1" source="YgA03bzmH8YJKxXAZx8s-16" target="YgA03bzmH8YJKxXAZx8s-22">
          <mxGeometry x="-0.0041" width="50" height="50" relative="1" as="geometry">
            <mxPoint x="1910" y="-270.07" as="sourcePoint" />
            <mxPoint x="2180" y="-540.07" as="targetPoint" />
            <mxPoint as="offset" />
            <Array as="points">
              <mxPoint x="2780" y="-480" />
            </Array>
          </mxGeometry>
        </mxCell>
        <mxCell id="YgA03bzmH8YJKxXAZx8s-18" value="ウィルス:カード&lt;br&gt;&lt;div style=&quot;text-align: left;&quot;&gt;&lt;span style=&quot;background-color: initial;&quot;&gt;- 色=黄&lt;/span&gt;&lt;/div&gt;" style="rounded=0;whiteSpace=wrap;html=1;strokeColor=#6c8ebf;fillColor=#dae8fc;" vertex="1" parent="1">
          <mxGeometry x="1720.25" y="-520.07" width="120" height="80" as="geometry" />
        </mxCell>
        <mxCell id="YgA03bzmH8YJKxXAZx8s-19" value="" style="endArrow=none;html=1;rounded=0;exitX=0;exitY=0.5;exitDx=0;exitDy=0;entryX=1;entryY=0.5;entryDx=0;entryDy=0;" edge="1" parent="1" source="YgA03bzmH8YJKxXAZx8s-16" target="YgA03bzmH8YJKxXAZx8s-18">
          <mxGeometry x="-0.0041" width="50" height="50" relative="1" as="geometry">
            <mxPoint x="1910" y="-270.07" as="sourcePoint" />
            <mxPoint x="1750" y="-630.07" as="targetPoint" />
            <mxPoint as="offset" />
          </mxGeometry>
        </mxCell>
        <mxCell id="YgA03bzmH8YJKxXAZx8s-20" value="" style="strokeWidth=1;html=1;shape=mxgraph.flowchart.merge_or_storage;whiteSpace=wrap;rotation=0;strokeColor=#9673a6;fillColor=#e1d5e7;" vertex="1" parent="1">
          <mxGeometry x="1920" y="-390.00000000000006" width="40" height="20" as="geometry" />
        </mxCell>
        <mxCell id="YgA03bzmH8YJKxXAZx8s-21" value="" style="endArrow=none;html=1;rounded=0;entryX=0.5;entryY=0;entryDx=0;entryDy=0;exitX=0.5;exitY=1;exitDx=0;exitDy=0;dashed=1;" edge="1" parent="1" source="YgA03bzmH8YJKxXAZx8s-8" target="YgA03bzmH8YJKxXAZx8s-22">
          <mxGeometry width="50" height="50" relative="1" as="geometry">
            <mxPoint x="2819.5" y="-680.07" as="sourcePoint" />
            <mxPoint x="2869.5" y="-570.07" as="targetPoint" />
          </mxGeometry>
        </mxCell>
        <mxCell id="YgA03bzmH8YJKxXAZx8s-22" value="からだパーツ&lt;br&gt;:カード&lt;br&gt;&lt;div style=&quot;text-align: left;&quot;&gt;&lt;span style=&quot;background-color: initial;&quot;&gt;- 色=黄&lt;/span&gt;&lt;/div&gt;" style="rounded=0;whiteSpace=wrap;html=1;strokeColor=#6c8ebf;fillColor=#dae8fc;" vertex="1" parent="1">
          <mxGeometry x="2720" y="-640.07" width="120" height="80" as="geometry" />
        </mxCell>
        <mxCell id="YgA03bzmH8YJKxXAZx8s-23" value="" style="endArrow=none;html=1;rounded=0;exitX=0;exitY=0.5;exitDx=0;exitDy=0;entryX=1;entryY=0.5;entryDx=0;entryDy=0;" edge="1" parent="1" source="YgA03bzmH8YJKxXAZx8s-15" target="YgA03bzmH8YJKxXAZx8s-22">
          <mxGeometry x="-0.0041" width="50" height="50" relative="1" as="geometry">
            <mxPoint x="2428.5" y="-110.07" as="sourcePoint" />
            <mxPoint x="2268.25" y="-360.07" as="targetPoint" />
            <mxPoint as="offset" />
          </mxGeometry>
        </mxCell>
        <mxCell id="YgA03bzmH8YJKxXAZx8s-24" value="自分:プレイヤー" style="rounded=0;whiteSpace=wrap;html=1;fillColor=#dae8fc;strokeColor=#6c8ebf;" vertex="1" parent="1">
          <mxGeometry x="1400" y="-640.07" width="120" height="80" as="geometry" />
        </mxCell>
        <mxCell id="YgA03bzmH8YJKxXAZx8s-25" value="" style="endArrow=none;html=1;rounded=0;exitX=0;exitY=0.5;exitDx=0;exitDy=0;entryX=1;entryY=0.5;entryDx=0;entryDy=0;" edge="1" parent="1" source="YgA03bzmH8YJKxXAZx8s-9" target="YgA03bzmH8YJKxXAZx8s-24">
          <mxGeometry x="-0.0041" width="50" height="50" relative="1" as="geometry">
            <mxPoint x="1560" y="-600.07" as="sourcePoint" />
            <mxPoint x="1850" y="-470.07" as="targetPoint" />
            <mxPoint as="offset" />
          </mxGeometry>
        </mxCell>
        <mxCell id="YgA03bzmH8YJKxXAZx8s-27" value="相手:プレイヤー" style="rounded=0;whiteSpace=wrap;html=1;fillColor=#dae8fc;strokeColor=#6c8ebf;" vertex="1" parent="1">
          <mxGeometry x="3198.5" y="-640.07" width="120" height="80" as="geometry" />
        </mxCell>
        <mxCell id="YgA03bzmH8YJKxXAZx8s-28" value=":手札&lt;br&gt;- 枚数: 3" style="rounded=0;whiteSpace=wrap;html=1;fillColor=#dae8fc;strokeColor=#6c8ebf;" vertex="1" parent="1">
          <mxGeometry x="3040" y="-640.07" width="120" height="80" as="geometry" />
        </mxCell>
        <mxCell id="YgA03bzmH8YJKxXAZx8s-29" value="" style="endArrow=none;html=1;rounded=0;exitX=1;exitY=0.5;exitDx=0;exitDy=0;entryX=0;entryY=0.5;entryDx=0;entryDy=0;" edge="1" parent="1" source="YgA03bzmH8YJKxXAZx8s-28" target="YgA03bzmH8YJKxXAZx8s-27">
          <mxGeometry x="-0.0041" width="50" height="50" relative="1" as="geometry">
            <mxPoint x="2428.5" y="-110.07" as="sourcePoint" />
            <mxPoint x="2268.25" y="-360.07" as="targetPoint" />
            <mxPoint as="offset" />
          </mxGeometry>
        </mxCell>
        <mxCell id="YgA03bzmH8YJKxXAZx8s-30" value="" style="endArrow=none;html=1;rounded=0;entryX=0.5;entryY=0;entryDx=0;entryDy=0;exitX=0.5;exitY=0;exitDx=0;exitDy=0;edgeStyle=orthogonalEdgeStyle;curved=1;" edge="1" parent="1" source="YgA03bzmH8YJKxXAZx8s-27" target="YgA03bzmH8YJKxXAZx8s-15">
          <mxGeometry x="-0.0041" width="50" height="50" relative="1" as="geometry">
            <mxPoint x="2168.5" y="-1020" as="sourcePoint" />
            <mxPoint x="2559" y="-1640.1399999999999" as="targetPoint" />
            <mxPoint as="offset" />
            <Array as="points">
              <mxPoint x="3258.5" y="-720" />
              <mxPoint x="2938.5" y="-720" />
            </Array>
          </mxGeometry>
        </mxCell>
        <mxCell id="mCJiWMqV4q9RxKUmI0LJ-1" value="" style="endArrow=none;dashed=1;html=1;rounded=0;" edge="1" parent="1">
          <mxGeometry width="50" height="50" relative="1" as="geometry">
            <mxPoint x="2480" y="-40.07" as="sourcePoint" />
            <mxPoint x="2480" y="-920.07" as="targetPoint" />
          </mxGeometry>
        </mxCell>
        <mxCell id="mCJiWMqV4q9RxKUmI0LJ-3" value=":からだエリア&lt;br&gt;- 枚数: 0" style="rounded=0;whiteSpace=wrap;html=1;fillColor=#dae8fc;strokeColor=#6c8ebf;" vertex="1" parent="1">
          <mxGeometry x="1960" y="-640.07" width="120" height="80" as="geometry" />
        </mxCell>
        <mxCell id="mCJiWMqV4q9RxKUmI0LJ-4" value="" style="endArrow=none;html=1;rounded=0;entryX=0;entryY=0.5;entryDx=0;entryDy=0;edgeStyle=orthogonalEdgeStyle;curved=1;exitX=1;exitY=0.5;exitDx=0;exitDy=0;" edge="1" parent="1" source="YgA03bzmH8YJKxXAZx8s-24" target="mCJiWMqV4q9RxKUmI0LJ-3">
          <mxGeometry x="-0.0041" width="50" height="50" relative="1" as="geometry">
            <mxPoint x="1520.5" y="-600.07" as="sourcePoint" />
            <mxPoint x="2040.5" y="-600.07" as="targetPoint" />
            <mxPoint as="offset" />
            <Array as="points">
              <mxPoint x="1540" y="-600" />
              <mxPoint x="1540" y="-800" />
              <mxPoint x="1920" y="-800" />
              <mxPoint x="1920" y="-600" />
            </Array>
          </mxGeometry>
        </mxCell>
        <mxCell id="mCJiWMqV4q9RxKUmI0LJ-5" value="" style="endArrow=none;html=1;rounded=0;exitX=1;exitY=0.5;exitDx=0;exitDy=0;entryX=0;entryY=0.5;entryDx=0;entryDy=0;" edge="1" parent="1" target="mCJiWMqV4q9RxKUmI0LJ-6" source="mCJiWMqV4q9RxKUmI0LJ-3">
          <mxGeometry x="-0.0041" width="50" height="50" relative="1" as="geometry">
            <mxPoint x="2080.5" y="-600.07" as="sourcePoint" />
            <mxPoint x="1670.25" y="-640.07" as="targetPoint" />
            <mxPoint as="offset" />
          </mxGeometry>
        </mxCell>
        <mxCell id="mCJiWMqV4q9RxKUmI0LJ-6" value="からだパーツ&lt;br&gt;:カード&lt;br&gt;&lt;div style=&quot;text-align: left;&quot;&gt;&lt;span style=&quot;background-color: initial;&quot;&gt;- 色=黄&lt;/span&gt;&lt;/div&gt;" style="rounded=0;whiteSpace=wrap;html=1;strokeColor=#6c8ebf;fillColor=#dae8fc;" vertex="1" parent="1">
          <mxGeometry x="2120" y="-640.07" width="120" height="80" as="geometry" />
        </mxCell>
        <mxCell id="mCJiWMqV4q9RxKUmI0LJ-7" value="薬:カード&lt;br&gt;&lt;div style=&quot;text-align: left;&quot;&gt;&lt;span style=&quot;background-color: initial;&quot;&gt;- 色=黄&lt;/span&gt;&lt;/div&gt;" style="rounded=0;whiteSpace=wrap;html=1;strokeColor=#6c8ebf;fillColor=#dae8fc;" vertex="1" parent="1">
          <mxGeometry x="2200" y="-600.07" width="120" height="80" as="geometry" />
        </mxCell>
        <mxCell id="mCJiWMqV4q9RxKUmI0LJ-8" value="" style="endArrow=none;html=1;rounded=0;exitX=0.5;exitY=0;exitDx=0;exitDy=0;entryX=0.5;entryY=0;entryDx=0;entryDy=0;edgeStyle=orthogonalEdgeStyle;curved=1;" edge="1" parent="1" source="mCJiWMqV4q9RxKUmI0LJ-6" target="mCJiWMqV4q9RxKUmI0LJ-7">
          <mxGeometry x="-0.0041" width="50" height="50" relative="1" as="geometry">
            <mxPoint x="1830.5" y="-390.07000000000005" as="sourcePoint" />
            <mxPoint x="1670.25" y="-640.07" as="targetPoint" />
            <mxPoint as="offset" />
            <Array as="points">
              <mxPoint x="2180" y="-680" />
              <mxPoint x="2260" y="-680" />
            </Array>
          </mxGeometry>
        </mxCell>
      </root>
    </mxGraphModel>
  </diagram>
</mxfile>
